<svg id="Layer_1" data-name="Layer 1" xmlns="http://www.w3.org/2000/svg" xmlns:xlink="http://www.w3.org/1999/xlink" viewBox="0 0 706.27 530.3"><defs><style>.cls-1{fill:#100f0f;}.cls-2{clip-path:url(#clip-path);}</style><clipPath id="clip-path" transform="translate(-82.12 -18.66)"><path class="cls-1" d="M421.77,163.24c4.84-13.83,6.54-20.9,14.68-47.56,10.05-33.12,31.9-59.11,67.15-48.39,41.25,12.59,31.64,54.33,25,71.28-5.37,13.6-9.57,27.57-18.43,50.2-7.07,18.32,8.09,18.9,16.17,17.09,9.25-2.09,36.11-15.92,52.92-23.82,12.49-5.71,35.61-19.67,48.56-6.17,13.25,13.65-1.64,37-17.35,51.1S553,258.55,540,263.71s-17.69,12.48-11.39,16.51,24.77,7.23,30.32,7.9c4.58.54,9.06,1.75,9.07,4.93,0,4-10.55,12.2-36.29,20.81-13.74,4.59-38.81,7.88-52.92,5.25-22.19-4.11-25.73-7.64-36.05-3.69-7.71,3-8.35,9.23-19.53,13.67-11.44,4.57-27.73,3.52-40.4,1.36-13-2.2-34.75-4.22-37-14.35-.94-4.08,3.43-6.55,7.11-10.59s6.88-11.87-9.09-15.26c-4.24-.89-48.42-8-75.67-21.93-27.55-14.26-38.07-35.62-35.25-43.14,2.35-6.22,8.57-6.8,17-5.22,9.68,1.83,52,13.36,64.74,13.49,5.26.06,9.35-1,11.19-4.25,5-8.79-10.39-19.35-23.08-34.72-18.29-21.75-53.06-58.06-26.87-90.49,17.38-21.44,51.58-7.5,65.83,9,10.92,12.69,29.89,38.56,44.49,56.11,5.64,6.73,12,10.16,17.88,10.16,7.32,0,13.95-5.27,17.7-16M419.33,64.7c-10.28,19.82-22.28,62.5-22.28,62.5s-1.09,3.19-3.27-.5c-1.45-2.4-18.59-25.74-27.21-36.21C356.68,78.43,312.71,32,262.24,58.34c-45.48,23.85-28.05,81.79-14.1,103.59,8.49,13.21,24.86,33.89,29.49,39.69.8,1,.64,1.39-.66,1-3.9-1-14.07-3.71-32.65-8.51-16.7-4.28-32.8-3.6-37.63,3.59-3.41,5.13-5.55,13.31,1.25,25.58,13.36,24.1,50.18,62.33,110.61,74.87,1.19.24,1.08,1.2.2,3-3.39,6.89-1.82,12.42.91,15.57,9,10.77,18.95,14.76,59.07,21.67,55.72,9.59,75.33-9.27,77.65-11.75a.65.65,0,0,1,.67-.17c8.72,2.08,43.86,10.22,86.25-7.9,38.79-16.46,53.62-31.47,53.87-40.64.21-8.43-20-7.33-26-8.88-1.86-.52-1.3-1.34-.27-2,2.71-1.73,9.54-4.56,15-7.4s62.3-31.48,73.53-79.78S627,131.33,603.38,141.25s-45.77,21.13-50.71,23.42c-.82.37-1,.11-.69-.74,2.22-5.44,10.8-26.89,15.12-46.84,4.95-22.91,2.65-85.66-59.35-97.19a75.12,75.12,0,0,0-13.66-1.24c-29,0-59.16,16.3-74.76,46"/></clipPath></defs><path class="cls-1" d="M144.28,421.17c42.46,0,62.16,26.84,62.16,52.77V531h-26.8V473.94c0-16.25-9.41-42.48-35.36-42.48s-35.36,26.23-35.36,42.48V531H82.12V473.94c0-25.93,19.7-52.77,62.16-52.77" transform="translate(-82.12 -18.66)"/><path class="cls-1" d="M513.59,532.75c-42.48,0-62.17-26.85-62.17-52.78v-57h26.8v57c0,16.27,9.41,42.48,35.37,42.48s35.35-26.21,35.35-42.48v-57h26.8v57c0,25.93-19.71,52.78-62.15,52.78" transform="translate(-82.12 -18.66)"/><path class="cls-1" d="M314.79,523.12A46.12,46.12,0,0,1,293,532.41c-27.21,4.27-65-13.53-66.37-53C225.22,439,265,422,290.94,422.62c43.83,1.15,59.31,34.26,59.31,53.07V531H323.31V476c0-12-5.57-42.76-33.22-43.48-27.1-.73-35.88,24.51-35.94,43.19,0,11.92,2.57,41.51,33.82,43.3,9.6.56,23.21-2.1,26.82-5.35Z" transform="translate(-82.12 -18.66)"/><path class="cls-1" d="M434.87,546.89a44.25,44.25,0,0,1-24.68.63c-12.59-3.27-33.51-9-33.51-52.33,0-14.47,0-119.89,0-119.89h27.2V423h24.93v16.79H403.91s.61,33.71,0,61c-.54,24.29,6.84,32.58,12.19,35.29,6.53,3.33,17.44,2.14,18.77,1.22Z" transform="translate(-82.12 -18.66)"/><path class="cls-1" d="M601.1,470.42c0-26.66,13.78-45.48,38.07-47.93,17.12-1.73,23.27,1.48,23.27,1.48v10.85a37,37,0,0,0-18.86.47c-11.05,3.37-15.39,20.09-15.39,25.71v70.55H601.1Z" transform="translate(-82.12 -18.66)"/><path class="cls-1" d="M752.9,523.12a46.08,46.08,0,0,1-21.77,9.29c-27.19,4.27-65-13.53-66.36-53C663.35,439,703.1,422,729.07,422.62c43.84,1.15,59.32,34.26,59.32,53.07V531h-27V476c0-12-5.56-42.76-33.23-43.48-27.08-.73-35.87,24.51-35.92,43.19,0,11.92,2.57,41.51,33.82,43.3,9.61.56,23.21-2.1,26.8-5.35Z" transform="translate(-82.12 -18.66)"/><path class="cls-1" d="M421.77,163.24c4.84-13.83,6.54-20.9,14.68-47.56,10.05-33.12,31.9-59.11,67.15-48.39,41.25,12.59,31.64,54.33,25,71.28-5.37,13.6-9.57,27.57-18.43,50.2-7.07,18.32,8.09,18.9,16.17,17.09,9.25-2.09,36.11-15.92,52.92-23.82,12.49-5.71,35.61-19.67,48.56-6.17,13.25,13.65-1.64,37-17.35,51.1S553,258.55,540,263.71s-17.69,12.48-11.39,16.51,24.77,7.23,30.32,7.9c4.58.54,9.06,1.75,9.07,4.93,0,4-10.55,12.2-36.29,20.81-13.74,4.59-38.81,7.88-52.92,5.25-22.19-4.11-25.73-7.64-36.05-3.69-7.71,3-8.35,9.23-19.53,13.67-11.44,4.57-27.73,3.52-40.4,1.36-13-2.2-34.75-4.22-37-14.35-.94-4.08,3.43-6.55,7.11-10.59s6.88-11.87-9.09-15.26c-4.24-.89-48.42-8-75.67-21.93-27.55-14.26-38.07-35.62-35.25-43.14,2.35-6.22,8.57-6.8,17-5.22,9.68,1.83,52,13.36,64.74,13.49,5.26.06,9.35-1,11.19-4.25,5-8.79-10.39-19.35-23.08-34.72-18.29-21.75-53.06-58.06-26.87-90.49,17.38-21.44,51.58-7.5,65.83,9,10.92,12.69,29.89,38.56,44.49,56.11,5.64,6.73,12,10.16,17.88,10.16,7.32,0,13.95-5.27,17.7-16M419.33,64.7c-10.28,19.82-22.28,62.5-22.28,62.5s-1.09,3.19-3.27-.5c-1.45-2.4-18.59-25.74-27.21-36.21C356.68,78.43,312.71,32,262.24,58.34c-45.48,23.85-28.05,81.79-14.1,103.59,8.49,13.21,24.86,33.89,29.49,39.69.8,1,.64,1.39-.66,1-3.9-1-14.07-3.71-32.65-8.51-16.7-4.28-32.8-3.6-37.63,3.59-3.41,5.13-5.55,13.31,1.25,25.58,13.36,24.1,50.18,62.33,110.61,74.87,1.19.24,1.08,1.2.2,3-3.39,6.89-1.82,12.42.91,15.57,9,10.77,18.95,14.76,59.07,21.67,55.72,9.59,75.33-9.27,77.65-11.75a.65.65,0,0,1,.67-.17c8.72,2.08,43.86,10.22,86.25-7.9,38.79-16.46,53.62-31.47,53.87-40.64.21-8.43-20-7.33-26-8.88-1.86-.52-1.3-1.34-.27-2,2.71-1.73,9.54-4.56,15-7.4s62.3-31.48,73.53-79.78S627,131.33,603.38,141.25s-45.77,21.13-50.71,23.42c-.82.37-1,.11-.69-.74,2.22-5.44,10.8-26.89,15.12-46.84,4.95-22.91,2.65-85.66-59.35-97.19a75.12,75.12,0,0,0-13.66-1.24c-29,0-59.16,16.3-74.76,46" transform="translate(-82.12 -18.66)"/><g class="cls-2"><rect class="cls-1" x="119.02" width="469.48" height="329.36"/></g></svg>