<?xml version="1.0" encoding="utf-8"?>
<!-- Generator: Adobe Illustrator 19.2.0, SVG Export Plug-In . SVG Version: 6.00 Build 0)  -->
<svg version="1.1" id="Layer_1" xmlns="http://www.w3.org/2000/svg" xmlns:xlink="http://www.w3.org/1999/xlink" x="0px" y="0px"
	 viewBox="0 0 640 480" style="enable-background:new 0 0 640 480;" xml:space="preserve">
<g>
	<path d="M78.9,113.8c-11.4-9.9-19.3-18.4-23.6-25.4c-4.3-7-6.5-14.5-6.5-22.5c0-14.2,5.8-21.2,17.4-21.2c5.7,0,10,1.7,13,5.2
		c3,3.5,4.4,9,4.4,16.6V78h33v-9.2c0-18-4.3-31.8-12.8-41.4C95.3,17.8,82.6,13,65.9,13C49,13,36.2,17.8,27.3,27.4
		C18.4,37,14,50.6,14,68.1c0,12.9,2.9,24.5,8.6,34.7c5.7,10.2,15.7,21.7,30.1,34.4c11.4,9.9,19.2,18.4,23.5,25.5
		c4.2,7.1,6.3,15.3,6.3,24.6c0,7.8-1.5,13.5-4.6,17c-3.1,3.5-7.6,5.2-13.5,5.2c-12,0-18.1-7.2-18.1-21.6v-15.2h-33v12.7
		c0,18,4.3,31.8,13,41.4c8.7,9.6,21.4,14.4,38.4,14.4c17.1,0,30.2-4.9,39.2-14.6c9-9.7,13.5-23.7,13.5-41.8
		c0-13.9-2.7-26.1-8.2-36.5C103.6,138,93.5,126.5,78.9,113.8"/>
	<polygon points="128.1,47.8 164.5,47.8 164.5,238.1 199.4,238.1 199.4,47.8 235.9,47.8 235.9,16.1 128.1,16.1 	"/>
	<path d="M321.8,188c0,7.6-1.5,13.1-4.6,16.5c-3.1,3.4-7.5,5.1-13.2,5.1c-5.7,0-10.1-1.7-13.2-5.1c-3.1-3.4-4.6-8.9-4.6-16.5V16.1
		h-34.9v169.3c0,18,4.4,31.8,13.3,41.4c8.9,9.6,21.8,14.4,38.7,14.4c16.9,0,29.8-4.8,38.7-14.4c8.9-9.6,13.3-23.4,13.3-41.4V16.1
		h-33.6V188z"/>
	<path d="M433.4,16.1h-53.3v221.9h53.3c17.3,0,30.3-4.6,39-13.9c8.7-9.3,13-22.9,13-40.9V71c0-18-4.3-31.6-13-40.9
		C463.7,20.8,450.7,16.1,433.4,16.1 M450.5,184.8c0,7.6-1.5,13.1-4.6,16.5c-3.1,3.4-7.5,5.1-13.2,5.1H415V47.8h17.7
		c5.7,0,10.1,1.7,13.2,5.1c3.1,3.4,4.6,8.9,4.6,16.5V184.8z"/>
	<polygon points="554.5,97.6 553.8,97.6 530,16.1 493,16.1 535.1,143.6 535.1,238.1 570,238.1 570,143.6 612.2,16.1 578.2,16.1 	"/>
	<polygon points="237.4,337.7 200,337.7 200,247.3 165.1,247.3 165.1,469.3 200,469.3 200,369.4 237.4,369.4 237.4,469.3 
		272.3,469.3 272.3,247.3 237.4,247.3 	"/>
	<path d="M325.2,247.3l-36.1,221.9h32.3l6.3-43.4h39.6v-0.6l6.3,44.1h34.9l-36.1-221.9H325.2z M331.9,395.7L347.1,286h0.6
		l15.5,109.7H331.9z"/>
	<polygon points="460.3,247.3 425.4,247.3 425.4,469.3 517.6,469.3 517.6,437.6 460.3,437.6 	"/>
	<polygon points="569.3,247.3 534.4,247.3 534.4,469.3 626.7,469.3 626.7,437.6 569.3,437.6 	"/>
</g>
</svg>
