<?xml version="1.0" encoding="utf-8"?>
<!-- Generator: Adobe Illustrator 16.0.0, SVG Export Plug-In . SVG Version: 6.00 Build 0)  -->
<!DOCTYPE svg PUBLIC "-//W3C//DTD SVG 1.1//EN" "http://www.w3.org/Graphics/SVG/1.1/DTD/svg11.dtd">
<svg version="1.1" id="Layer_1" xmlns="http://www.w3.org/2000/svg" xmlns:xlink="http://www.w3.org/1999/xlink" x="0px" y="0px"
	 width="1439.047px" height="1440px" viewBox="720.477 0 1439.047 1440" enable-background="new 720.477 0 1439.047 1440"
	 xml:space="preserve">
<g>
	<g>
		<path d="M2126.944,1104.911l-899.186,39.095L752.102,498.939c-32.579-58.643-13.032-123.802,19.548-169.412l65.158-6.516
			l403.982,547.33l814.479-32.579l84.706,84.706h-26.063C2081.333,1052.784,2126.944,1046.269,2126.944,1104.911z
			 M2107.396,1091.879c-39.095-78.189-19.547-130.316-13.031-169.411l-847.059,32.579c-19.548,52.127-32.58,110.77-13.032,169.412
			L2107.396,1091.879z"/>
	</g>
	<g>
		<path d="M2146.492,811.698l-899.186,39.095L771.65,205.726c-26.063-52.127-6.516-123.801,32.579-169.412l749.322-26.063
			l605.973,619.005h-26.063C2087.85,746.54,2153.008,766.088,2146.492,811.698z M2126.944,792.15
			c-39.095-58.643-26.063-104.252-19.548-156.379l-847.059,32.579c-19.548,52.127-26.063,110.769,0,162.896L2126.944,792.15z"/>
	</g>
	<g>
		<path d="M2113.912,1391.607l-905.701,39.096L732.555,785.635c-26.063-52.127-6.516-123.8,26.063-169.412h58.642l403.983,547.331
			l820.995-32.579l78.19,78.189h-26.063C2061.786,1359.028,2120.429,1332.965,2113.912,1391.607z M2100.881,1372.061
			c-39.095-45.611-32.579-110.77-26.063-162.896l-827.511,32.58c-26.063,58.642-52.127,117.284-26.063,169.411L2100.881,1372.061z"
			/>
	</g>
</g>
</svg>
