<?xml version="1.0" encoding="utf-8"?>
<!-- Generator: Adobe Illustrator 16.0.0, SVG Export Plug-In . SVG Version: 6.00 Build 0)  -->
<!DOCTYPE svg PUBLIC "-//W3C//DTD SVG 1.1//EN" "http://www.w3.org/Graphics/SVG/1.1/DTD/svg11.dtd">
<svg version="1.1" id="Layer_1" xmlns="http://www.w3.org/2000/svg" xmlns:xlink="http://www.w3.org/1999/xlink" x="0px" y="0px"
	 width="297.727px" height="295.455px" viewBox="0 0 297.727 295.455" enable-background="new 0 0 297.727 295.455"
	 xml:space="preserve">
<circle fill="#FFFFFF" cx="149.273" cy="146.815" r="128.645"/>
<path fill="#231F20" d="M149.357,275.462c-2.586,0-5.183-0.077-7.798-0.234c-34.299-2.061-65.743-17.354-88.539-43.063
	c-22.797-25.711-34.216-58.761-32.154-93.058c2.06-34.3,17.354-65.744,43.063-88.54s58.757-34.225,93.059-32.156
	c70.806,4.253,124.948,65.319,120.695,136.123C273.586,222.724,216.793,275.462,149.357,275.462 M149.106,22.172
	c-30.476,0-59.525,10.995-82.522,31.386c-24.911,22.087-39.729,52.553-41.727,85.787C20.736,207.947,73.196,267.113,141.8,271.235
	c68.622,4.104,127.77-48.34,131.892-116.943c4.12-68.602-48.34-127.768-116.942-131.891
	C154.194,22.248,151.644,22.172,149.106,22.172"/>
<path d="M58.946,105.602c0.274-0.606,0.974-0.871,1.577-0.598c0.604,0.274,0.866,0.973,0.594,1.578
	c-0.274,0.607-0.974,0.872-1.578,0.599C58.935,106.908,58.672,106.209,58.946,105.602"/>
<polygon points="70.454,76.126 72.029,77.423 70.022,79.859 77.629,86.124 76.164,87.902 68.559,81.636 66.552,84.072 
	64.976,82.775 "/>
<path d="M76.233,88.605l-7.606-6.266l-2.007,2.437l-2.349-1.933l6.113-7.421l2.35,1.932l-2.008,2.435l7.607,6.266L76.233,88.605z
	 M68.489,80.932l7.607,6.266l0.829-1.005l-7.607-6.266l2.009-2.435l-0.805-0.663l-4.843,5.878l0.803,0.662L68.489,80.932z"/>
<polygon points="88.448,68.295 83.848,72.099 87.26,76.228 85.484,77.695 77.902,68.521 79.679,67.054 82.549,70.526 87.148,66.723 
	84.278,63.251 86.055,61.783 93.637,70.958 91.862,72.424 "/>
<path d="M85.418,78.4l-8.22-9.947l2.547-2.104l2.868,3.472l3.83-3.165l-2.869-3.473l2.548-2.104l8.218,9.945l-2.545,2.105
	l-3.413-4.13l-3.83,3.167l3.412,4.128L85.418,78.4z M78.606,68.588l6.945,8.403l1.004-0.83l-3.412-4.128l5.371-4.442l3.414,4.13
	l1.003-0.83l-6.944-8.404l-1.005,0.831l2.87,3.472l-5.371,4.441l-2.871-3.473L78.606,68.588z"/>
<polygon points="98.701,56.132 99.887,58.294 103.104,56.529 104.086,58.317 100.869,60.083 102.463,62.989 106.878,60.567 
	107.86,62.356 101.425,65.887 95.698,55.452 101.983,52.002 102.965,53.792 "/>
<path d="M101.227,66.566L95.02,55.254l7.161-3.931l1.464,2.667l-4.265,2.34l0.705,1.285l3.218-1.765l1.462,2.664l-3.217,1.767
	l1.113,2.029l4.416-2.422l1.462,2.664L101.227,66.566z M96.377,55.649l5.246,9.56l5.559-3.051l-0.501-0.912l-4.416,2.422
	l-2.075-3.784l3.219-1.764l-0.501-0.912l-3.219,1.764l-1.665-3.039l4.265-2.34l-0.501-0.913L96.377,55.649z"/>
<polygon points="124.094,43.835 126.344,43.348 128.426,52.988 133.345,51.925 133.774,53.919 126.605,55.469 "/>
<path d="M126.223,56.065l-2.722-12.613l3.226-0.699l2.082,9.641l4.919-1.063l0.644,2.972L126.223,56.065z M124.688,44.218
	l2.301,10.657l6.192-1.339l-0.219-1.016l-4.919,1.063l-2.082-9.64L124.688,44.218z"/>
<rect x="141.791" y="40.998" transform="matrix(0.9979 -0.0651 0.0651 0.9979 -2.7521 9.4008)" width="2.304" height="11.902"/>
<path d="M141.72,53.494l-0.843-12.875l3.295-0.213l0.843,12.875L141.72,53.494z M141.939,41.553l0.712,10.879l1.302-0.085
	l-0.712-10.879L141.939,41.553z"/>
<path d="M158.993,41.229c1.343,0.122,2.062,0.511,2.593,1.071c0.608,0.636,0.976,1.522,0.887,2.488
	c-0.07,0.778-0.518,1.54-0.945,1.911c1.007,0.62,1.631,1.872,1.51,3.192c-0.092,0.998-0.6,1.874-1.32,2.457
	c-0.723,0.601-1.678,0.923-3.206,0.784l-4.64-0.421l1.079-11.85L158.993,41.229z M158.645,51.097
	c0.798,0.072,1.257-0.091,1.575-0.386c0.299-0.264,0.485-0.622,0.523-1.046c0.039-0.422-0.08-0.809-0.325-1.121
	c-0.26-0.348-0.684-0.592-1.481-0.664l-2.294-0.208l-0.293,3.216L158.645,51.097z M156.827,45.64l1.613,0.147
	c0.713,0.064,1.052-0.075,1.314-0.308c0.223-0.201,0.387-0.494,0.416-0.815c0.028-0.322-0.079-0.639-0.264-0.878
	c-0.215-0.275-0.521-0.473-1.235-0.539l-1.613-0.146L156.827,45.64z"/>
<path d="M159.184,53.665c-0.229,0-0.47-0.012-0.721-0.035l-5.135-0.465l1.168-12.847l4.542,0.413c1.322,0.12,2.221,0.498,2.91,1.226
	c0.744,0.776,1.118,1.826,1.021,2.877c-0.062,0.69-0.359,1.331-0.705,1.793c0.897,0.792,1.386,2.033,1.271,3.31
	c-0.103,1.088-0.649,2.108-1.507,2.801C161.278,53.362,160.361,53.665,159.184,53.665 M154.414,52.257l4.14,0.376
	c1.268,0.116,2.146-0.09,2.841-0.67c0.654-0.528,1.069-1.298,1.146-2.118c0.1-1.095-0.412-2.188-1.273-2.721l-0.582-0.357
	l0.518-0.446c0.332-0.288,0.717-0.94,0.773-1.579c0.07-0.763-0.203-1.527-0.75-2.096c-0.367-0.388-0.922-0.797-2.275-0.92
	l-3.547-0.323L154.414,52.257z M159.003,51.614c-0.128,0-0.263-0.007-0.403-0.021l-2.793-0.253l0.384-4.213l2.791,0.253
	c0.873,0.079,1.457,0.354,1.838,0.864c0.323,0.414,0.473,0.923,0.423,1.465c-0.05,0.544-0.288,1.02-0.69,1.375
	C160.169,51.44,159.669,51.614,159.003,51.614 M158.689,50.599c0.737,0.068,1.025-0.099,1.189-0.254
	c0.221-0.194,0.34-0.435,0.366-0.724c0.025-0.286-0.051-0.55-0.221-0.769c-0.143-0.189-0.394-0.406-1.133-0.474l-1.798-0.163
	l-0.202,2.221L158.689,50.599z M158.768,46.303c-0.117,0-0.24-0.006-0.371-0.017l-2.112-0.194l0.323-3.534l2.11,0.192
	c0.768,0.07,1.241,0.289,1.585,0.729c0.271,0.353,0.405,0.8,0.367,1.23c-0.039,0.427-0.25,0.843-0.578,1.141
	C159.74,46.162,159.332,46.303,158.768,46.303 M157.371,45.188l1.115,0.102c0.655,0.061,0.834-0.094,0.938-0.184
	c0.138-0.126,0.233-0.31,0.249-0.486c0.016-0.181-0.043-0.374-0.161-0.528c-0.106-0.137-0.274-0.291-0.886-0.346l-1.115-0.102
	L157.371,45.188z"/>
<path d="M174.604,50.644l-1.517,5.047l-2.207-0.663l3.427-11.396l4.166,1.252c1.179,0.353,1.831,0.905,2.246,1.598
	c0.444,0.773,0.588,1.721,0.313,2.633c-0.274,0.911-0.915,1.624-1.714,2.023c-0.397,0.2-0.843,0.315-1.346,0.324l2.71,6.513
	l-2.729-0.82l-2.551-6.271L174.604,50.644z M177.021,49.239c0.64,0.192,0.955,0.145,1.214-0.007c0.261-0.153,0.488-0.44,0.586-0.765
	c0.104-0.341,0.069-0.706-0.062-0.978c-0.133-0.271-0.364-0.5-1.004-0.692l-1.829-0.55l-0.733,2.443L177.021,49.239z"/>
<path d="M181.552,58.757l-3.97-1.193l-2.55-6.27l-0.094-0.028l-1.518,5.047l-3.166-0.951l3.716-12.355l4.646,1.397
	c1.198,0.359,2.004,0.938,2.53,1.82c0.533,0.93,0.664,2.032,0.362,3.034c-0.302,1.003-1.02,1.852-1.968,2.326
	c-0.271,0.135-0.555,0.235-0.853,0.298L181.552,58.757z M178.328,56.745l1.488,0.447l-2.586-6.215l0.733-0.015
	c0.414-0.007,0.783-0.096,1.13-0.27c0.704-0.353,1.235-0.981,1.459-1.722c0.222-0.738,0.125-1.554-0.268-2.239
	c-0.394-0.656-0.998-1.081-1.956-1.369l-3.688-1.108l-3.138,10.439l1.248,0.375l1.518-5.047l1.509,0.454L178.328,56.745z
	 M177.726,49.865c-0.246,0-0.522-0.05-0.849-0.147l-2.309-0.692l1.021-3.401l2.31,0.695c0.692,0.207,1.084,0.492,1.31,0.95
	c0.192,0.396,0.228,0.898,0.091,1.344c-0.13,0.432-0.432,0.827-0.81,1.05C178.26,49.797,178.014,49.865,177.726,49.865
	 M175.815,48.355l1.352,0.405c0.581,0.175,0.733,0.089,0.815,0.04c0.159-0.093,0.302-0.281,0.357-0.476
	c0.064-0.211,0.054-0.445-0.03-0.615c-0.045-0.091-0.128-0.261-0.698-0.433l-1.351-0.406L175.815,48.355z"/>
<path d="M187.383,60.529l10.031-8.202l1.438,0.747l-0.943,12.914l-2.136-1.108l0.217-2.856l-4.256-2.206l-2.215,1.818
	L187.383,60.529z M193.445,58.408l2.695,1.398l0.274-3.822L193.445,58.408z"/>
<path d="M198.351,66.78l-3.103-1.609l0.217-2.856l-3.669-1.902l-2.217,1.818l-3.101-1.609l10.873-8.891l2.021,1.051L198.351,66.78z
	 M196.296,64.587l1.168,0.607l0.864-11.828l-0.854-0.444l-9.187,7.512l1.165,0.606l2.217-1.819l4.841,2.51L196.296,64.587z
	 M196.584,60.6l-4.045-2.099l4.457-3.637L196.584,60.6z M194.351,58.313l1.346,0.698l0.137-1.908L194.351,58.313z"/>
<path d="M209.568,67.77l-3.294,4.117l-1.799-1.438l7.438-9.295l3.396,2.717c0.959,0.767,1.358,1.523,1.485,2.321
	c0.123,0.882-0.1,1.815-0.694,2.559s-1.456,1.165-2.344,1.238c-0.446,0.036-0.9-0.022-1.369-0.201l0.078,7.053l-2.225-1.779
	l-0.021-6.768L209.568,67.77z M212.334,67.37c0.521,0.416,0.831,0.49,1.13,0.445c0.298-0.044,0.616-0.225,0.829-0.49
	c0.224-0.279,0.328-0.63,0.309-0.93c-0.021-0.301-0.153-0.601-0.672-1.016l-1.492-1.194l-1.596,1.992L212.334,67.37z"/>
<path d="M212.979,77.889l-3.234-2.586l-0.021-6.768l-0.075-0.061l-3.294,4.116l-2.58-2.063l8.062-10.076l3.789,3.029
	c0.977,0.782,1.506,1.619,1.667,2.634c0.146,1.059-0.145,2.132-0.798,2.949s-1.637,1.337-2.694,1.424
	c-0.303,0.023-0.604,0.011-0.902-0.042L212.979,77.889z M210.741,74.82l1.214,0.971l-0.074-6.733l0.686,0.262
	c0.384,0.145,0.753,0.2,1.15,0.17c0.783-0.066,1.512-0.448,1.994-1.053c0.482-0.604,0.698-1.397,0.59-2.177
	c-0.119-0.756-0.521-1.375-1.303-2l-3.007-2.404l-6.812,8.514l1.018,0.813l3.295-4.116l1.229,0.984L210.741,74.82z M213.317,68.328
	c-0.407,0-0.808-0.178-1.295-0.567h-0.001l-1.882-1.506l2.22-2.773l1.884,1.507c0.563,0.453,0.82,0.863,0.856,1.371
	c0.029,0.437-0.125,0.915-0.415,1.277c-0.288,0.358-0.716,0.609-1.146,0.673C213.465,68.321,213.391,68.328,213.317,68.328
	 M212.646,66.979c0.477,0.378,0.646,0.355,0.744,0.342c0.184-0.029,0.386-0.15,0.517-0.311c0.134-0.167,0.209-0.391,0.195-0.582
	c-0.007-0.099-0.021-0.287-0.483-0.66l-1.103-0.881l-0.971,1.211L212.646,66.979z"/>
<polygon points="224.54,81.801 220.49,85.356 218.971,83.626 223.019,80.071 225.207,72.702 226.939,74.674 225.535,79.406 
	230.398,78.608 232.134,80.582 "/>
<path d="M220.445,86.061l-2.181-2.482l4.315-3.789l2.404-8.098l2.514,2.86l-1.258,4.232l4.352-0.714l2.516,2.863l-8.346,1.339
	L220.445,86.061z M219.677,83.671l0.86,0.979l3.78-3.32l6.843-1.098l-0.953-1.085l-5.378,0.881l1.554-5.232l-0.954-1.085
	l-1.972,6.64L219.677,83.671z"/>
<path d="M239.071,104.142c0.285,0.601,0.035,1.304-0.562,1.589c-0.6,0.284-1.302,0.033-1.588-0.568
	c-0.284-0.601-0.035-1.305,0.562-1.589C238.083,103.289,238.786,103.542,239.071,104.142"/>
<path d="M244.154,126.878c-0.714,0.839-1.209,1.933-0.992,3.142c0.193,1.092,1.067,1.924,2.122,1.737
	c1.791-0.32,1.549-2.842,2.29-4.587c0.4-0.939,1.09-1.737,2.311-1.955c1.707-0.305,3.382,0.957,3.747,3.007
	c0.269,1.495-0.199,2.653-0.606,3.367l-1.397-0.772c0.421-0.735,0.562-1.505,0.429-2.244c-0.174-0.975-0.899-1.851-1.921-1.668
	c-1.489,0.265-1.36,2.825-2.095,4.517c-0.379,0.881-1.066,1.767-2.405,2.006c-2.059,0.367-3.682-0.99-4.049-3.04
	c-0.286-1.613,0.155-3.2,1.224-4.466L244.154,126.878z"/>
<path d="M244.599,143.657c0.838-0.761,1.945-1.23,3.544-1.217l6.969,0.053l-0.014,1.707l-7.052-0.055
	c-1.123-0.009-1.82,0.258-2.352,0.732c-0.668,0.591-1.063,1.476-1.071,2.482c-0.007,1.008,0.378,1.897,1.036,2.5
	c0.522,0.481,1.219,0.762,2.341,0.77l7.053,0.055l-0.013,1.707l-6.969-0.055c-1.598-0.013-2.697-0.499-3.524-1.273
	c-0.962-0.912-1.548-2.248-1.538-3.714C243.019,145.88,243.623,144.553,244.599,143.657"/>
<path d="M244.944,162.16c-0.967,0.526-1.821,1.37-2.054,2.575c-0.209,1.091,0.31,2.18,1.359,2.382
	c1.787,0.343,2.464-2.101,3.783-3.461c0.711-0.733,1.638-1.232,2.856-0.998c1.702,0.325,2.814,2.104,2.423,4.147
	c-0.287,1.49-1.139,2.404-1.774,2.926l-1.028-1.224c0.656-0.534,1.062-1.202,1.203-1.938c0.188-0.973-0.177-2.051-1.194-2.245
	c-1.486-0.286-2.284,2.149-3.575,3.466c-0.669,0.689-1.629,1.27-2.964,1.012c-2.055-0.394-3.083-2.24-2.691-4.285
	c0.311-1.608,1.292-2.933,2.745-3.73L244.944,162.16z"/>
<polygon points="250.039,179.222 247.243,186.919 245.726,186.369 246.832,183.322 237.166,179.817 237.748,178.214 
	247.416,181.719 248.521,178.672 "/>
<path d="M232.392,196.86l2.474-4.385l-2.056-2.589l0.871-1.546l7.939,10.154l-0.588,1.04l-12.799-1.531l0.873-1.547L232.392,196.86z
	 M235.936,193.863l-1.809,3.211l4.755,0.565L235.936,193.863z"/>
<rect x="226.59" y="203.089" transform="matrix(-0.6207 0.784 -0.784 -0.6207 532.5131 160.4688)" width="1.704" height="11.904"/>
<polygon points="220.488,220.933 214.628,214.454 215.891,213.31 223.874,222.128 222.989,222.931 211.816,221.265 217.677,227.741 
	216.412,228.886 208.429,220.065 209.315,219.265 "/>
<path d="M196.54,231.702l4.319-2.573l-0.494-3.269l1.522-0.907l1.836,12.758l-1.022,0.61l-10.336-7.693l1.523-0.908L196.54,231.702z
	 M201.101,230.864l-3.165,1.887l3.844,2.855L201.101,230.864z"/>
<path d="M184.891,234.012l4.097,11.173l-3.811,1.4c-1.09,0.4-1.89,0.35-2.594,0.064c-0.771-0.313-1.403-0.95-1.707-1.78
	c-0.281-0.769-0.198-1.632,0.146-2.32c-1.248-0.138-2.456-0.999-2.917-2.259c-0.381-1.038-0.246-2.156,0.284-3.039
	c0.402-0.691,1.039-1.232,2.176-1.65L184.891,234.012z M181.41,237.01c-1.01,0.371-1.406,0.772-1.633,1.252
	c-0.195,0.452-0.233,0.992-0.047,1.503c0.188,0.51,0.561,0.881,1.002,1.101c0.481,0.221,1.043,0.269,2.055-0.104l2.434-0.894
	l-1.375-3.751L181.41,237.01z M183.854,242.089c-0.896,0.33-1.217,0.646-1.368,1.028c-0.146,0.344-0.168,0.731-0.025,1.114
	c0.14,0.384,0.407,0.664,0.741,0.832c0.36,0.193,0.811,0.229,1.707-0.103l1.923-0.705l-1.056-2.873L183.854,242.089z"/>
<polygon points="167.043,240.97 161.838,241.903 161.553,240.313 168.438,239.077 170.537,250.794 168.857,251.097 "/>
<polygon points="147.51,248.293 147.495,246.679 151.42,246.644 151.384,242.649 146.096,242.694 146.081,241.082 153.075,241.021 
	153.182,252.918 146.358,252.978 146.344,251.36 151.462,251.317 151.434,248.259 "/>
<path d="M125.479,241.156c-0.425-1.017-1.177-1.952-2.354-2.306c-1.062-0.319-2.198,0.084-2.508,1.109
	c-0.522,1.742,1.836,2.665,3.058,4.115c0.654,0.781,1.057,1.756,0.7,2.941c-0.5,1.661-2.382,2.588-4.375,1.988
	c-1.455-0.438-2.276-1.377-2.729-2.062l1.322-0.898c0.464,0.708,1.089,1.18,1.808,1.396c0.947,0.285,2.057,0.031,2.355-0.961
	c0.437-1.448-1.905-2.489-3.082-3.908c-0.617-0.735-1.098-1.749-0.704-3.053c0.601-2.002,2.546-2.838,4.54-2.238
	c1.567,0.471,2.783,1.582,3.43,3.107L125.479,241.156z"/>
<polygon points="108.034,244.702 100.62,241.233 101.304,239.771 104.239,241.144 108.595,231.822 110.14,232.544 105.784,241.866 
	108.718,243.238 "/>
<path d="M92.061,225.515l4.14,2.865l2.764-1.809l1.458,1.011l-10.834,6.969l-0.982-0.681l2.698-12.602l1.459,1.01L92.061,225.515z
	 M94.72,229.317l-3.032-2.098l-0.997,4.684L94.72,229.317z"/>
<polygon points="77.658,220.774 83.961,214.726 85.143,215.956 76.56,224.194 75.732,223.333 77.07,212.115 70.769,218.165 
	69.587,216.935 78.169,208.696 78.995,209.558 "/>
<path d="M72.301,201.101l-10.075,6.34l-1.909-3.035c-1.008-1.604-1.315-2.86-1.229-4.065c0.141-1.821,1.146-3.544,2.814-4.595
	s3.648-1.227,5.354-0.562c1.122,0.443,2.131,1.28,3.139,2.885L72.301,201.101z M60.762,200.192
	c-0.146,0.979,0.078,2.008,0.968,3.425l0.955,1.518l7.341-4.618l-0.956-1.518c-0.889-1.417-1.719-2.064-2.665-2.355
	c-1.157-0.341-2.472-0.16-3.595,0.545C61.688,197.896,60.957,199.001,60.762,200.192"/>
<path d="M58.021,179.937l1.826,4.688l3.303,0.053l0.646,1.654l-12.883-0.301l-0.435-1.113l9.294-8.92l0.646,1.653L58.021,179.937z
	 M58.095,184.575l-1.336-3.436l-3.452,3.318L58.095,184.575z"/>
<path d="M51.843,167.406l5.518-1.023l0.312,1.679l-11.704,2.17l-0.764-4.109c-0.2-1.073-0.074-1.79,0.261-2.408
	c0.438-0.811,1.223-1.423,2.192-1.604c0.972-0.18,1.922,0.113,2.623,0.712c0.369,0.312,0.664,0.692,0.873,1.261l4.804-5.246
	l0.378,2.03l-4.743,5.198L51.843,167.406z M49.817,165.353c-0.14-0.754-0.379-1.109-0.695-1.328
	c-0.317-0.219-0.732-0.313-1.15-0.237c-0.418,0.078-0.771,0.317-0.989,0.635c-0.219,0.317-0.312,0.734-0.173,1.489l0.437,2.35
	l3.011-0.559L49.817,165.353z"/>
<path d="M55.344,150.774l-11.901-0.116l0.035-3.583c0.02-1.894,0.439-3.119,1.163-4.085c1.103-1.456,2.879-2.361,4.852-2.341
	c1.974,0.019,3.73,0.941,4.806,2.419c0.705,0.98,1.101,2.229,1.082,4.123L55.344,150.774z M46.13,143.773
	c-0.653,0.744-1.021,1.73-1.038,3.403l-0.019,1.791l8.67,0.086l0.02-1.793c0.017-1.67-0.331-2.665-0.971-3.421
	c-0.79-0.913-1.99-1.47-3.316-1.483C48.149,142.342,46.937,142.876,46.13,143.773"/>
<path fill="#231F20" d="M149.32,219.831c-1.467,0-2.939-0.044-4.425-0.134c-40.185-2.414-70.914-37.071-68.5-77.257
	c2.413-40.185,37.035-70.929,77.257-68.501c19.468,1.169,37.312,9.849,50.251,24.441c12.938,14.592,19.42,33.349,18.249,52.814
	C219.828,189.897,187.594,219.831,149.32,219.831 M149.229,77.807c-36.18,0-66.644,28.29-68.842,64.874
	c-2.281,37.984,26.765,70.742,64.748,73.024c1.4,0.084,2.798,0.125,4.183,0.125c36.181,0.003,66.645-28.29,68.843-64.874
	c1.104-18.4-5.021-36.128-17.25-49.921c-12.229-13.792-29.099-21.998-47.498-23.103C152.012,77.848,150.614,77.807,149.229,77.807"
	/>
<path fill="#231F20" d="M172.66,183.978c-3.428,0-7.32-0.754-11.564-2.273c-9.426-3.373-19.639-10.158-28.759-19.105
	c-19.521-19.151-27.562-41.544-18.308-50.98c9.256-9.432,31.799-1.823,51.32,17.328c9.12,8.948,16.101,19.03,19.652,28.389
	c3.747,9.867,3.268,17.891-1.346,22.592C181.015,182.619,177.256,183.978,172.66,183.978 M125.021,111.547
	c-3.412,0-6.221,0.92-8.135,2.871c-7.429,7.574,0.929,28.33,18.252,45.324c8.716,8.551,18.413,15.013,27.306,18.194
	c8.263,2.957,14.95,2.66,18.358-0.812c3.407-3.474,3.575-10.169,0.462-18.371c-3.353-8.83-9.998-18.402-18.714-26.953
	C149.69,119.186,134.853,111.547,125.021,111.547"/>
<path fill="#231F20" d="M155.028,173.842c-0.604,0-1.198-0.271-1.593-0.788c-0.669-0.878-0.5-2.133,0.379-2.803
	c3.558-2.711,7.025-5.783,10.312-9.132c8.551-8.716,15.013-18.414,18.194-27.305c2.956-8.26,2.66-14.951-0.812-18.359
	c-4.529-4.442-14.356-3.311-25.648,2.956c-0.967,0.535-2.186,0.188-2.72-0.778c-0.536-0.966-0.188-2.184,0.778-2.72
	c13.098-7.267,24.459-8.132,30.391-2.313c4.701,4.613,5.334,12.626,1.777,22.561c-3.373,9.426-10.158,19.64-19.105,28.759
	c-3.42,3.483-7.035,6.687-10.744,9.513C155.877,173.708,155.45,173.842,155.028,173.842"/>
<path fill="#231F20" d="M126.683,186.093c-4.376,0-8.036-1.271-10.68-3.865c-9.437-9.258-1.824-31.801,17.327-51.322
	c3.589-3.657,7.386-6.995,11.286-9.921c0.884-0.665,2.139-0.483,2.8,0.399c0.662,0.883,0.483,2.137-0.399,2.8
	c-3.739,2.806-7.384,6.011-10.831,9.523c-16.995,17.324-24.955,38.236-17.382,45.666c5.294,5.193,17.766,2.673,31.037-6.268
	c0.915-0.619,2.159-0.375,2.775,0.541s0.375,2.157-0.541,2.774C142.607,182.8,133.721,186.092,126.683,186.093"/>
</svg>
