<?xml version="1.0" encoding="utf-8"?>
<!-- Generator: Adobe Illustrator 19.2.0, SVG Export Plug-In . SVG Version: 6.00 Build 0)  -->
<svg version="1.1" id="Layer_1" xmlns="http://www.w3.org/2000/svg" xmlns:xlink="http://www.w3.org/1999/xlink" x="0px" y="0px"
	 viewBox="0 0 702 702" style="enable-background:new 0 0 702 702;" xml:space="preserve">
<style type="text/css">
	.st0{fill:#99CCD4;}
	.st1{fill:#FFFFFF;}
</style>
<circle class="st0" cx="351" cy="351" r="351"/>
<g>
	<g>
		<path class="st1" d="M-151.1,144.3c35.1-5,70.3-8.4,105.7-10.3c9.1-0.5,18.2-0.9,27.4-1.1c8.3-0.3,16.8-0.7,25,0.5
			c6.3,0.9,12.3,2.8,17.7,6.1c4.2,2.6,8.4,6.6,11.7,10.7c6.8,8.5,12.7,21.8,16.7,31.6c5.4,13.4,10.4,27,17.4,39.7
			c15.7,28.5,41.9,52.1,75.5,54.5c30.8,2.1,54.6-18.6,73.2-40.5c9.2-10.9,17.7-22.4,28.4-31.9c4.9-4.4,10.3-8.1,16.1-11.3
			c5.1-2.8,11.7-5.3,17.1-5.9c10.5-1.2,20.7,3.7,26.5,12.2c7.2,10.6,10.1,23.2,11.9,36.4c4.8,35.1,1.2,70.8,7.9,105.8
			c1.7,8.8,4.9,16.7,12.5,22.1c6.3,4.4,14.6,5.8,22,7.2c15.5,2.9,31.4,4.3,47.1,3.8c31.6-1,62.8-8.8,91.2-22.8
			c7-3.4,13.7-7.3,20.2-11.5c-5-0.7-10.1-1.3-15.1-2c-0.1-0.2,1.8,3.3,1.8,3.3c-0.5-1.3,0.7,3,0.6,2.5c0,0.1,0.4,2.4,0.2,0.8
			c0.5,4.5,0,7.3-1,11.2c-2.2,8.7-6.3,16.1-11.1,23.9c-10.2,16.6-22.4,31.9-36.3,45.6c-7.1,7-14.6,13.7-22.5,19.8
			c-8.6,6.6-19.8,12.4-20.4,24.7c-1.1,23,31.8,32.1,49.3,35.8c9.7,2,19.4,3.3,29.2,5.1c1.3,0.2,13.3,1.7,13.5,2.9
			c-0.6-0.4-1.3-0.7-1.9-1.1c-1.4-1.5-2-3-1.9-4.8c-1.1-0.6,1.8-1-0.2-0.3c-0.4,0.2-2.5,2.8-3.3,3.5c-13.7,11.1-31.8,19.5-48.7,25.1
			c-35.2,11.8-73.4,13.5-109.1,3.5c-44.1-12.3-82.1-41.1-127.8-48.8c-6-1-14.3,1.5-15.4,8.7c-4.6,32.1-2,64.7,9.2,95.3
			c1.1,3.1,2.3,6.2,3.2,9.4c0.4,1.4,0.6,2.8,0.7,3.9c0,0.5-0.3,2.7,0,2.1c-1.7,4.3-9.2,6.9-13.2,8.7c-9.9,4.4-21.4,6.4-32.7,6.2
			c-23.9-0.3-45.8-10.6-61.8-29.1c-9.1-10.5-16.2-22.5-24.1-33.8c-8.6-12.2-17.9-25-32.1-30.9c-17.2-7.1-35.4,0.2-49.1,11
			c-12.1,9.5-20.7,23.2-33.9,31.4c6.3,3.6,12.5,7.2,18.8,10.8C-14.5,535.8,9,489.4,46.7,458c18.3-15.3,40.3-25.4,63.7-31.9
			c24.6-6.8,50-10.7,74.7-17.4c24.6-6.7,48.5-16.5,67.6-33.7c22.5-20.1,34.3-48.7,46.6-75.6c14.1-30.8,28.3-61.7,42.4-92.5
			c6.5-14.2,12.5-28.8,20.1-42.4c6.2-11.2,13.8-21.8,24.9-27.8c4.7-2.5,10.7-4.4,15.4-4.6c5.4-0.2,9.4,0.6,14.1,3.6
			c3.7,2.3,7.7,6.9,10.3,10.5c3.7,5.1,7,10.5,10.7,15.7c14.3,20,34.3,31.5,57.7,38.2c21.4,6.2,43.7,8.6,65.2,14.8
			c4.4,1.3,10.8,3.4,13.8,4.7c3.2,1.3,9.1,4.4,13,7c1,0.7,2,1.4,3,2.1c1.2,0.8,0.1,0-0.1-0.1c0.6,0.5,1.3,1,1.9,1.5
			c2,1.7,4,3.6,5.8,5.5c3.8,4.1,6.8,8.8,9.4,14.2c4.8,10.1,6.4,22.2,6.6,33.8c0.1,13.1-1.4,25-3.8,37.6c-3,15.5-7.1,31.4-5.2,47.3
			c1.6,13.9,7,26.3,16.7,36.5c15.5,16.3,37.7,23.3,57.1,33.5c10.7,5.6,17.8,10.1,25.3,19.2c6.6,8,10.6,18.6,12.9,29.6
			c2.4,11.3,2.6,24,1.7,36.6c-0.8,12.2-1.6,24.7-6.1,36.6c-3.9,10.2-14.2,14-24,15.1c-14.4,1.6-28.7-0.7-42.4-5.2
			c-13.7-4.5-26.5-11.2-38.7-18.8c-12.8-8-24.8-16.9-38.8-22.7c-13.5-5.7-29-7.8-43.1-2.7c-12.5,4.6-22.8,13-30.9,23.4
			c-7.8,10-14,21-19.6,32.3c-3,6.1-1.6,13.5,4.5,17.1c5.5,3.2,14.1,1.6,17.1-4.5c5.3-10.8,11.6-22.8,18.8-31.1
			c7.5-8.6,15.5-14.8,26.3-15.2c13.2-0.4,25.5,7.1,36.6,14.2c12.9,8.3,25.6,16.8,39.5,23.3c27,12.7,61.8,22.1,90.8,10.4
			c15.5-6.3,25.5-18.1,29.6-34.3c3.3-13.2,4.9-27.3,5.6-40.9c1.4-26.4-2.4-55.1-18.8-76.6C709,424,686.4,415,664.4,404.2
			c-4.9-2.4-9.7-4.9-14.3-7.8c-1-0.6-2.1-1.3-3.1-2c-0.5-0.3-3.2-2.3-2.6-1.9c0.6,0.5-1.5-1.3-2-1.7c-1.2-1-2.3-2.1-3.4-3.2
			c-0.8-0.8-1.6-1.7-2.4-2.6c-0.4-0.4-0.8-0.9-1.1-1.4c0.2,0.2,1,1.3,0.2,0.2c-1.5-2.3-3.1-4.7-4.2-7.3c-2.2-5.2-2.9-12.4-2.7-18.7
			c0.5-14.5,4.9-28.7,7-43c2-14.1,3.3-28.5,1.9-42.7c-2.9-27.8-15.2-52.5-39.2-67.7c-19.4-12.3-42.6-16.7-64.7-21.1
			c-11.2-2.2-22.5-4.4-33.5-7.7c-11-3.3-18.1-5.9-27.8-12.7c-0.4-0.3-2.8-2.1-1.4-0.9c-1-0.7-1.9-1.5-2.8-2.4
			c-2.2-1.9-4.2-4-6.1-6.1c-3.5-3.9-7-9.5-10.4-14.6c-7.8-11.6-16.4-22.7-29.7-28.2c-30.5-12.8-61.1,8.3-77.2,33.3
			c-8.3,12.9-14.2,27.3-20.6,41.3c-7.3,15.9-14.5,31.7-21.8,47.6c-7.1,15.6-14.3,31.1-21.4,46.7c-6.7,14.5-13,29.3-20.5,43.4
			c-6.6,12.5-14.4,24.2-24.9,33.8c-8.2,7.5-19.1,13.9-30.2,18.7c-9.7,4.2-23.2,8.2-34.8,11c-12.5,3.1-25.2,5.6-37.8,8.4
			c-26,5.6-52.1,12.4-75.5,25.5c-46.1,26-80.6,72.5-92.5,124c-3,12.9-4.6,26.2-4.7,39.4c-0.1,9.3,10.8,15.8,18.8,10.8
			c12.9-8,22-19.7,32.8-30c4.3-4.1,9.3-7.9,14.7-10.1c5.4-2.2,10.4-2.7,15.3,0c10.9,6.1,18.3,19.8,25.1,29.9
			c8.3,12.3,16.6,24.8,27.2,35.2c19.7,19.4,47.2,29.9,74.8,29.9c13.2,0,26.6-2.5,38.9-7.5c15-6.2,30.4-15.4,30.6-33.7
			c0.1-8.8-3.5-16.9-6.3-25.1c-2.9-8.4-5.1-17-6.7-25.8c-3.1-17-3.4-34.9-1-51.9c-5.1,2.9-10.3,5.8-15.4,8.7
			c42.9,7.2,79.1,33.2,120,46.4c39.4,12.8,82.9,12.8,122.5,1.2c19.6-5.7,38.7-14.3,55.8-25.6c9.1-6,19.2-12.9,21.8-24.3
			c1.5-6.3-0.3-13.2-4.9-17.9c-4.5-4.6-10.7-5.9-16.8-7.1c-19.9-4-42-4.6-60.1-14.5c-1.8-1-4-2.3-5.5-3.4c-0.1-0.1-1.1-0.7-0.8-0.9
			c0,0.1,0.1,0.1,0.1,0.2c0.7,1.3,0.5,2.7-0.4,4.3c-0.1-0.1,1.9-1.6,2.6-2.2c2.5-1.8,4.9-3.6,7.4-5.4c8.8-6.7,17.3-13.8,25.2-21.6
			c17-16.6,32-35.6,44-56.1c12.2-20.8,19.8-47.2,3-67.7c-3.3-4.1-10.8-4.7-15.1-2c-24.7,15.8-53.1,26.4-82.2,29.6
			c-15.1,1.7-30.5,1.7-45.6,0.1c-7-0.8-14.2-2.1-21.1-3.8c-1.4-0.4-2.9-0.7-4.2-1.2c-0.4-0.2-1.3-0.9-1.2-0.8
			c-0.6-1.2-1.5-5.4-1.9-7.7c-6.6-34.3-2.9-69.6-7.7-104.1c-3.9-28-16.1-60.4-47-67.4c-30.3-6.9-59.9,13.6-78.8,35.5
			c-9,10.4-17.2,21.5-26.8,31.4c-8.7,9-18.1,16.8-29.5,20c-27.5,7.8-52.9-13.1-66.5-35.6c-14-23.1-19.3-50.5-34.8-73.2
			c-8.4-12.2-19-22-32.9-27.6c-15.5-6.2-32.8-5.6-49.2-5c-36.2,1.2-72.3,4.1-108.2,8.5c-9.2,1.1-18.4,2.4-27.6,3.7
			c-6.7,1-10.4,9.5-8.7,15.4C-164.5,142.8-157.8,145.3-151.1,144.3L-151.1,144.3z"/>
	</g>
</g>
</svg>
