<?xml version="1.0" encoding="utf-8"?>
<!-- Generator: Adobe Illustrator 19.2.0, SVG Export Plug-In . SVG Version: 6.00 Build 0)  -->
<svg version="1.1" id="Layer_1" xmlns="http://www.w3.org/2000/svg" xmlns:xlink="http://www.w3.org/1999/xlink" x="0px" y="0px"
	 viewBox="0 0 361.4 70.1" style="enable-background:new 0 0 361.4 70.1;" xml:space="preserve">
<style type="text/css">
	.st0{fill:#2C8D6A;}
	.st1{fill:#007E69;}
	.st2{fill:#007066;}
	.st3{fill:#006361;}
	.st4{fill:#4E9E6A;}
	.st5{fill:#6BB068;}
	.st6{fill:#89C765;}
</style>
<g>
	<path class="st0" d="M162.2,12.7h-0.5h-0.3c-0.1,0-0.2,0-0.2,0c-5.9,0.1-11.4,2.5-15.5,6.7c-4.1,4.2-6.4,9.8-6.3,15.6
		c0,5.3-2,10.3-5.7,14.1c-3.7,3.8-8.7,6-14,6.1c-0.1,0-0.1,0-0.2,0H119v0h-0.5c-0.6,0-1.1,0.5-1.1,1.1c0,0.6,0.5,1.1,1.1,1.1h0.5
		h0.3c0.1,0,0.2,0,0.2,0c5.9-0.1,11.4-2.5,15.5-6.7c4.1-4.2,6.4-9.8,6.3-15.6c0-5.3,2-10.3,5.7-14.1c3.7-3.8,8.7-6,14-6.1
		c0.1,0,0.1,0,0.2,0l0.3,0v0h0.5c0.6,0,1.1-0.5,1.1-1.1S162.8,12.7,162.2,12.7"/>
	<path class="st1" d="M162.2,16.9h-0.5v0l-0.2,0c-0.1,0-0.3,0-0.4,0c-4.7,0.1-9.1,2.1-12.4,5.5c-3.3,3.4-5.1,7.8-5.1,12.5v0.1
		c0,6.4-2.4,12.5-6.9,17.1c-4.5,4.7-10.6,7.3-17.1,7.3h-0.1h-0.1H119v0h-0.5c-0.6,0-1.1,0.5-1.1,1.1s0.5,1.1,1.1,1.1h0.5l0.2,0h0.1
		c0,0,0,0,0.1,0c0,0,0,0,0.1,0c7.1-0.1,13.7-2.9,18.6-8c4.9-5,7.5-11.6,7.5-18.6l0-0.1c0-4.1,1.6-8.1,4.5-11.1c2.9-3,6.8-4.7,11-4.8
		c0.1,0,0.2,0,0.3,0l0.2,0v0h0.5c0.6,0,1.1-0.5,1.1-1.1C163.2,17.4,162.8,16.9,162.2,16.9"/>
	<path class="st2" d="M162.2,21.2h-0.5v0.2l0-0.2h-0.2c-0.2,0-0.3,0-0.5,0c-3.7,0.2-7.1,1.7-9.6,4.4c-2.4,2.6-3.7,5.9-3.6,9.4v0.1
		c0,7.5-2.9,14.7-8.2,20.1c-5.4,5.4-12.5,8.5-20.2,8.5h-0.1h-0.1H119v0h-0.5c-0.6,0-1.1,0.5-1.1,1.1c0,0.6,0.5,1.1,1.1,1.1h0.5h0.2
		h0.1c0,0,0.1,0,0.1,0c8.2-0.1,15.9-3.3,21.7-9.2c5.7-5.8,8.8-13.5,8.8-21.6V35c0,0,0,0,0,0c0-2.9,1.1-5.7,3.1-7.9
		c2.1-2.3,5-3.6,8.1-3.8c0.1,0,0.2,0,0.4,0l0.3,0v0h0.5c0.6,0,1.1-0.5,1.1-1.1C163.2,21.7,162.8,21.2,162.2,21.2"/>
	<path class="st3" d="M162.2,25.4h-0.5l-0.2,0c-0.2,0-0.4,0-0.6,0c-2.5,0.2-4.9,1.3-6.5,3.3c-1.5,1.7-2.3,4-2.3,6.3v0.1
		c0,8.7-3.4,16.9-9.6,23.1c-6.2,6.2-14.4,9.6-23.1,9.7h-0.1l-0.2,0v0h-0.5c-0.6,0-1.1,0.5-1.1,1.1c0,0.6,0.5,1.1,1.1,1.1h0.5v0
		l0.3,0c9.3,0,18-3.7,24.6-10.3c6.6-6.6,10.2-15.4,10.2-24.7V35c0-1.8,0.6-3.6,1.8-4.9c1.3-1.5,3.1-2.4,5.1-2.5c0.1,0,0.3,0,0.5,0
		l0.2,0v0h0.5c0.6,0,1.1-0.5,1.1-1.1C163.2,25.9,162.8,25.4,162.2,25.4"/>
	<path class="st4" d="M118.4,53.2h0.5l0.2,0c0.1,0,0.3,0,0.4,0c4.7-0.1,9.1-2.1,12.4-5.5c3.3-3.4,5.1-7.8,5.1-12.5v-0.1v0
		c0-6.4,2.4-12.5,6.9-17.1c4.5-4.7,10.6-7.3,17.1-7.3h0.1h0.1h0.2h0.5c0.6,0,1.1-0.5,1.1-1.1c0-0.6-0.5-1.1-1.1-1.1h-0.5l-0.2,0
		h-0.1c0,0-0.1,0-0.1,0c-7.1,0.1-13.7,2.9-18.6,8c-4.9,5-7.5,11.6-7.5,18.6l0,0.1c0,4.1-1.6,8.1-4.5,11.1c-2.9,3-6.8,4.7-11,4.8
		c-0.1,0-0.2,0-0.3,0l-0.2,0v0h-0.5c-0.6,0-1.1,0.5-1.1,1.1C117.4,52.7,117.8,53.2,118.4,53.2"/>
	<path class="st5" d="M118.4,48.9h0.5l0.3,0c0.2,0,0.3,0,0.5,0c3.7-0.2,7.1-1.7,9.6-4.4c2.4-2.6,3.7-5.9,3.6-9.4V35
		c0-7.5,2.9-14.7,8.2-20.1c5.4-5.4,12.5-8.5,20.2-8.5c0,0,0,0,0.1,0h0.1l0.1,0v0h0.5c0.6,0,1.1-0.5,1.1-1.1c0-0.6-0.5-1.1-1.1-1.1
		h-0.5h-0.1h-0.1c0,0-0.1,0-0.1,0c-8.2,0.1-15.9,3.3-21.7,9.2c-5.7,5.8-8.8,13.5-8.8,21.6v0c0,0,0,0,0,0c0,2.9-1.1,5.7-3.1,7.9
		c-2.1,2.3-5,3.6-8.1,3.8c-0.1,0-0.2,0-0.4,0l-0.3,0v0h-0.5c-0.6,0-1.1,0.5-1.1,1.1C117.4,48.4,117.8,48.9,118.4,48.9"/>
	<path class="st6" d="M118.4,44.7h0.5l0.2,0c0.2,0,0.4,0,0.6,0c2.5-0.2,4.9-1.3,6.5-3.3c1.5-1.7,2.3-4,2.3-6.3V35
		c0-8.7,3.4-16.9,9.6-23.1c6.2-6.2,14.4-9.6,23.1-9.7h0.1h0.2h0.4c0.6,0,1.1-0.5,1.1-1.1S162.6,0,162,0h-0.5v0h0h-0.1
		c-9.3,0-18,3.7-24.6,10.3c-6.6,6.6-10.2,15.4-10.2,24.7v0.1c0,1.8-0.6,3.6-1.8,4.9c-1.3,1.5-3.1,2.4-5.1,2.5c-0.1,0-0.3,0-0.5,0
		l-0.2,0v0h-0.5c-0.6,0-1.1,0.5-1.1,1.1C117.4,44.2,117.8,44.7,118.4,44.7"/>
	<path d="M165.9,47.3c1-0.1,1.6-0.3,2.1-0.4c0.7-0.3,1.1-0.8,1.1-1.5c0-0.8-0.3-1.4-0.9-1.7c-0.6-0.3-1.4-0.5-2.5-0.5
		c-1.2,0-2.1,0.3-2.6,0.9c-0.4,0.4-0.6,1-0.7,1.8h-5c0.1-1.7,0.6-3.1,1.4-4.2c1.4-1.7,3.7-2.6,7-2.6c2.2,0,4.1,0.4,5.8,1.3
		c1.7,0.9,2.5,2.5,2.5,4.8v9c0,0.6,0,1.4,0,2.3c0,0.7,0.1,1.1,0.3,1.4c0.2,0.2,0.4,0.4,0.8,0.6v0.8h-5.6c-0.2-0.4-0.3-0.8-0.3-1.1
		c-0.1-0.3-0.1-0.7-0.1-1.2c-0.7,0.8-1.5,1.4-2.5,2c-1.1,0.6-2.4,1-3.8,1c-1.8,0-3.3-0.5-4.4-1.5c-1.2-1-1.7-2.5-1.7-4.3
		c0-2.4,0.9-4.2,2.8-5.2c1-0.6,2.5-1,4.5-1.3L165.9,47.3z M169.1,49.7c-0.3,0.2-0.7,0.4-1,0.5c-0.3,0.1-0.8,0.2-1.4,0.3l-1.2,0.2
		c-1.1,0.2-1.9,0.4-2.4,0.7c-0.8,0.5-1.2,1.2-1.2,2.2c0,0.9,0.2,1.5,0.7,1.9c0.5,0.4,1.1,0.6,1.8,0.6c1.1,0,2.2-0.3,3.1-1
		s1.4-1.8,1.5-3.5V49.7z"/>
	<path d="M181.6,52.9c0.1,0.9,0.3,1.6,0.7,1.9c0.6,0.7,1.8,1,3.5,1c1,0,1.8-0.2,2.4-0.4c0.6-0.3,0.9-0.8,0.9-1.4
		c0-0.6-0.2-1-0.7-1.3c-0.5-0.3-2.3-0.8-5.4-1.6c-2.2-0.6-3.8-1.2-4.7-2.1c-0.9-0.8-1.4-2-1.4-3.5c0-1.8,0.7-3.4,2.1-4.7
		c1.4-1.3,3.4-2,6-2c2.5,0,4.5,0.5,6,1.5c1.5,1,2.4,2.7,2.7,5.1h-5.1c-0.1-0.7-0.3-1.2-0.6-1.6c-0.6-0.7-1.5-1-2.9-1
		c-1.1,0-1.9,0.2-2.4,0.5c-0.5,0.3-0.7,0.8-0.7,1.2c0,0.6,0.3,1,0.8,1.3c0.5,0.3,2.3,0.8,5.4,1.4c2,0.5,3.6,1.2,4.6,2.2
		c1,1,1.5,2.2,1.5,3.7c0,1.9-0.7,3.5-2.2,4.8c-1.4,1.2-3.7,1.8-6.7,1.8c-3.1,0-5.4-0.7-6.9-2c-1.5-1.3-2.2-3-2.2-5H181.6z"/>
	<path d="M228.2,39.6c0.8,0.3,1.6,0.9,2.3,1.8c0.6,0.7,0.9,1.5,1.1,2.5c0.1,0.7,0.2,1.6,0.2,2.9l0,12.4h-5.3V46.7
		c0-0.7-0.1-1.4-0.4-1.8c-0.5-0.9-1.3-1.4-2.5-1.4c-1.4,0-2.4,0.6-2.9,1.8c-0.3,0.6-0.4,1.4-0.4,2.3v11.7h-5.2V47.5
		c0-1.2-0.1-2-0.4-2.5c-0.4-0.9-1.3-1.4-2.5-1.4c-1.5,0-2.4,0.5-3,1.4c-0.3,0.5-0.4,1.3-0.4,2.4v11.8h-5.2V39.6h5v2.9
		c0.6-1,1.2-1.7,1.8-2.2c1-0.8,2.3-1.2,3.9-1.2c1.5,0,2.7,0.3,3.6,1c0.7,0.6,1.3,1.4,1.7,2.4c0.7-1.2,1.5-2,2.5-2.5
		c1.1-0.5,2.2-0.8,3.5-0.8C226.5,39.1,227.3,39.3,228.2,39.6"/>
	<path d="M238.8,39.6v11.8c0,1.1,0.1,2,0.4,2.5c0.5,1,1.4,1.5,2.7,1.5c1.7,0,2.9-0.7,3.6-2.1c0.3-0.8,0.5-1.8,0.5-3V39.6h5.2v19.6
		h-5v-2.8c0,0.1-0.2,0.2-0.4,0.5c-0.2,0.3-0.4,0.6-0.7,0.8c-0.8,0.7-1.6,1.2-2.3,1.5c-0.7,0.3-1.6,0.4-2.6,0.4c-2.9,0-4.9-1-5.9-3.1
		c-0.6-1.2-0.8-2.9-0.8-5.1V39.6H238.8z"/>
	<path d="M258,52.9c0.1,0.9,0.3,1.6,0.7,1.9c0.6,0.7,1.8,1,3.5,1c1,0,1.8-0.2,2.4-0.4c0.6-0.3,0.9-0.8,0.9-1.4c0-0.6-0.2-1-0.7-1.3
		c-0.5-0.3-2.3-0.8-5.4-1.6c-2.2-0.6-3.8-1.2-4.7-2.1c-0.9-0.8-1.4-2-1.4-3.5c0-1.8,0.7-3.4,2.1-4.7c1.4-1.3,3.4-2,6-2
		c2.5,0,4.5,0.5,6,1.5c1.5,1,2.4,2.7,2.7,5.1h-5.1c-0.1-0.7-0.3-1.2-0.6-1.6c-0.6-0.7-1.5-1-2.9-1c-1.1,0-1.9,0.2-2.4,0.5
		c-0.5,0.3-0.7,0.8-0.7,1.2c0,0.6,0.3,1,0.8,1.3c0.5,0.3,2.3,0.8,5.4,1.4c2,0.5,3.6,1.2,4.6,2.2c1,1,1.5,2.2,1.5,3.7
		c0,1.9-0.7,3.5-2.2,4.8c-1.4,1.2-3.7,1.8-6.7,1.8c-3.1,0-5.4-0.7-6.9-2c-1.5-1.3-2.2-3-2.2-5H258z"/>
	<path d="M286.5,40c1.4,0.6,2.5,1.6,3.4,2.9c0.8,1.2,1.3,2.5,1.6,4.1c0.1,0.9,0.2,2.2,0.2,3.9h-14.3c0.1,2,0.8,3.4,2.1,4.1
		c0.8,0.5,1.7,0.7,2.8,0.7c1.2,0,2.1-0.3,2.8-0.9c0.4-0.3,0.8-0.8,1.1-1.4h5.2c-0.1,1.2-0.8,2.3-1.9,3.5c-1.8,1.9-4.2,2.9-7.4,2.9
		c-2.6,0-4.9-0.8-6.9-2.4c-2-1.6-3-4.2-3-7.9c0-3.4,0.9-6,2.7-7.8c1.8-1.8,4.1-2.7,7-2.7C283.5,39,285.1,39.4,286.5,40 M278.8,44.4
		c-0.7,0.7-1.2,1.8-1.4,3h8.8c-0.1-1.4-0.5-2.4-1.4-3.1c-0.8-0.7-1.8-1.1-3-1.1C280.5,43.3,279.5,43.7,278.8,44.4"/>
	<path d="M298.5,39.6v11.8c0,1.1,0.1,2,0.4,2.5c0.5,1,1.4,1.5,2.7,1.5c1.7,0,2.9-0.7,3.6-2.1c0.3-0.8,0.5-1.8,0.5-3V39.6h5.2v19.6
		h-5v-2.8c0,0.1-0.2,0.2-0.4,0.5c-0.2,0.3-0.4,0.6-0.7,0.8c-0.8,0.7-1.6,1.2-2.3,1.5c-0.7,0.3-1.6,0.4-2.6,0.4c-2.9,0-4.9-1-5.9-3.1
		c-0.6-1.2-0.8-2.9-0.8-5.1V39.6H298.5z"/>
	<path d="M338,39.6c0.8,0.3,1.6,0.9,2.3,1.8c0.6,0.7,0.9,1.5,1.1,2.5c0.1,0.7,0.2,1.6,0.2,2.9l0,12.4h-5.3V46.7
		c0-0.7-0.1-1.4-0.4-1.8c-0.5-0.9-1.3-1.4-2.5-1.4c-1.4,0-2.4,0.6-2.9,1.8c-0.3,0.6-0.4,1.4-0.4,2.3v11.7h-5.2V47.5
		c0-1.2-0.1-2-0.4-2.5c-0.4-0.9-1.3-1.4-2.5-1.4c-1.5,0-2.5,0.5-3,1.4c-0.3,0.5-0.4,1.3-0.4,2.4v11.8h-5.2V39.6h5v2.9
		c0.6-1,1.2-1.7,1.8-2.2c1-0.8,2.3-1.2,3.9-1.2c1.5,0,2.7,0.3,3.6,1c0.7,0.6,1.3,1.4,1.7,2.4c0.7-1.2,1.5-2,2.5-2.5
		c1.1-0.5,2.2-0.8,3.5-0.8C336.3,39.1,337.2,39.3,338,39.6"/>
	<path d="M348.6,52.9c0.1,0.9,0.3,1.6,0.7,1.9c0.6,0.7,1.8,1,3.5,1c1,0,1.8-0.2,2.4-0.4c0.6-0.3,0.9-0.8,0.9-1.4
		c0-0.6-0.2-1-0.7-1.3c-0.5-0.3-2.3-0.8-5.4-1.6c-2.2-0.6-3.8-1.2-4.7-2.1c-0.9-0.8-1.4-2-1.4-3.5c0-1.8,0.7-3.4,2.1-4.7
		c1.4-1.3,3.4-2,6-2c2.5,0,4.5,0.5,6,1.5c1.5,1,2.4,2.7,2.7,5.1h-5.1c-0.1-0.7-0.3-1.2-0.6-1.6c-0.6-0.7-1.5-1-2.9-1
		c-1.1,0-1.9,0.2-2.4,0.5c-0.5,0.3-0.7,0.8-0.7,1.2c0,0.6,0.3,1,0.8,1.3c0.5,0.3,2.3,0.8,5.4,1.4c2,0.5,3.6,1.2,4.6,2.2
		c1,1,1.5,2.2,1.5,3.7c0,1.9-0.7,3.5-2.2,4.8c-1.4,1.2-3.7,1.8-6.7,1.8c-3.1,0-5.4-0.7-6.9-2c-1.5-1.3-2.2-3-2.2-5H348.6z"/>
	<rect y="9.4" width="5.1" height="26.6"/>
	<path d="M16.3,24.1c1-0.1,1.6-0.3,2.1-0.5c0.7-0.3,1.1-0.8,1.1-1.5c0-0.8-0.3-1.4-0.9-1.7C18,20.2,17.2,20,16.1,20
		c-1.2,0-2.1,0.3-2.6,0.9c-0.4,0.4-0.6,1-0.7,1.8h-5c0.1-1.7,0.6-3.1,1.4-4.2c1.4-1.7,3.7-2.6,7-2.6c2.2,0,4.1,0.4,5.8,1.3
		c1.7,0.9,2.5,2.5,2.5,4.8v9c0,0.6,0,1.4,0,2.3c0,0.7,0.1,1.1,0.3,1.4c0.2,0.2,0.4,0.4,0.8,0.6V36H20c-0.2-0.4-0.3-0.8-0.3-1.1
		c-0.1-0.3-0.1-0.7-0.1-1.2c-0.7,0.8-1.5,1.4-2.5,2c-1.1,0.6-2.4,1-3.8,1c-1.8,0-3.3-0.5-4.4-1.5c-1.2-1-1.8-2.5-1.8-4.3
		c0-2.4,0.9-4.2,2.8-5.2c1-0.6,2.5-1,4.5-1.3L16.3,24.1z M19.4,26.4c-0.3,0.2-0.7,0.4-1,0.5c-0.3,0.1-0.8,0.2-1.4,0.3l-1.2,0.2
		c-1.1,0.2-1.9,0.4-2.4,0.7c-0.8,0.5-1.2,1.2-1.2,2.2c0,0.9,0.2,1.5,0.7,1.9c0.5,0.4,1.1,0.6,1.8,0.6c1.1,0,2.2-0.3,3.1-1
		c0.9-0.6,1.4-1.8,1.5-3.5V26.4z"/>
	<path d="M43.3,17.5c1.3,1.1,1.9,2.8,1.9,5.3V36h-5.3V24.1c0-1-0.1-1.8-0.4-2.4c-0.5-1-1.5-1.5-2.9-1.5c-1.7,0-2.9,0.7-3.6,2.2
		c-0.3,0.8-0.5,1.8-0.5,3V36h-5.1V16.4h5v2.9c0.7-1,1.3-1.7,1.9-2.2c1.1-0.8,2.4-1.2,4-1.2C40.3,15.9,42,16.4,43.3,17.5"/>
	<path d="M58.5,16.7c0.9,0.5,1.7,1.2,2.3,2.2V9.5H66V36h-5v-2.7c-0.7,1.2-1.6,2-2.5,2.5c-0.9,0.5-2.1,0.8-3.5,0.8
		c-2.3,0-4.2-0.9-5.8-2.8c-1.6-1.9-2.3-4.2-2.3-7.1c0-3.3,0.8-6,2.3-7.9c1.5-1.9,3.6-2.9,6.2-2.9C56.5,15.9,57.6,16.2,58.5,16.7
		 M59.8,30.7c0.8-1.1,1.1-2.5,1.1-4.2c0-2.4-0.6-4.1-1.8-5.2c-0.7-0.6-1.6-0.9-2.6-0.9c-1.5,0-2.6,0.6-3.3,1.7
		c-0.7,1.1-1.1,2.5-1.1,4.2c0,1.8,0.4,3.3,1.1,4.3c0.7,1.1,1.8,1.6,3.3,1.6C57.9,32.3,59,31.7,59.8,30.7"/>
	<path d="M77.5,9.2c0.3,0,0.6,0,1.1,0.1v4.2c-0.3,0-0.8-0.1-1.4-0.1c-0.7,0-1.1,0.1-1.4,0.4c-0.3,0.3-0.4,0.7-0.4,1.1v1.7h3.4v3.6
		h-3.4V36h-5.1V20.2h-2.9v-3.6h2.8v-1.3c0-2.1,0.4-3.5,1.1-4.3c0.7-1.2,2.5-1.8,5.4-1.8C77,9.2,77.3,9.2,77.5,9.2"/>
	<path d="M86,14h-5.2V9.3H86V14z M80.8,16.4H86V36h-5.2V16.4z"/>
	<rect x="88.2" y="9.4" width="5.1" height="26.6"/>
	<rect x="96.3" y="9.4" width="5.1" height="26.6"/>
	<path d="M108.1,29.7c0.1,0.9,0.3,1.6,0.7,1.9c0.6,0.7,1.8,1,3.5,1c1,0,1.8-0.2,2.4-0.4c0.6-0.3,0.9-0.8,0.9-1.4
		c0-0.6-0.2-1-0.7-1.3c-0.5-0.3-2.3-0.8-5.4-1.6c-2.2-0.6-3.8-1.2-4.7-2.1c-0.9-0.8-1.4-2-1.4-3.5c0-1.8,0.7-3.4,2.1-4.7
		c1.4-1.3,3.4-2,6-2c2.5,0,4.5,0.5,6,1.5c1.5,1,2.4,2.7,2.7,5.1h-5.1c-0.1-0.7-0.3-1.2-0.6-1.6c-0.6-0.7-1.5-1-2.9-1
		c-1.1,0-1.9,0.2-2.4,0.5c-0.5,0.3-0.7,0.8-0.7,1.2c0,0.6,0.3,1,0.8,1.3c0.5,0.3,2.3,0.8,5.4,1.4c2,0.5,3.6,1.2,4.6,2.2
		c1,1,1.5,2.2,1.5,3.7c0,1.9-0.7,3.5-2.2,4.8c-1.4,1.2-3.7,1.8-6.7,1.8c-3.1,0-5.4-0.7-6.9-2c-1.5-1.3-2.2-3-2.2-5H108.1z"/>
</g>
</svg>
