<?xml version="1.0" encoding="utf-8"?>
<!-- Generator: Adobe Illustrator 19.2.0, SVG Export Plug-In . SVG Version: 6.00 Build 0)  -->
<svg version="1.1" id="Layer_1" xmlns="http://www.w3.org/2000/svg" xmlns:xlink="http://www.w3.org/1999/xlink" x="0px" y="0px"
	 viewBox="0 0 277.9 70" style="enable-background:new 0 0 277.9 70;" xml:space="preserve">
<style type="text/css">
	.st0{fill:#E5902D;}
	.st1{fill:#DF742C;}
	.st2{fill:#DA562A;}
	.st3{fill:#D52D29;}
	.st4{fill:#ECAD2F;}
	.st5{fill:#F4CB2F;}
	.st6{fill:#FCE92E;}
</style>
<path class="st0" d="M122.7,12.7h-0.5h-0.3c-0.1,0-0.2,0-0.2,0c-5.9,0.1-11.4,2.5-15.5,6.7c-4.1,4.2-6.4,9.7-6.3,15.6
	c0,5.3-2,10.3-5.7,14.1c-3.7,3.8-8.7,6-14,6.1c-0.1,0-0.1,0-0.2,0h-0.3v0H79c-0.6,0-1.1,0.5-1.1,1.1c0,0.6,0.5,1.1,1.1,1.1h0.5h0.3
	c0.1,0,0.2,0,0.2,0c5.9-0.1,11.4-2.5,15.5-6.7c4.1-4.2,6.4-9.8,6.3-15.6c0-5.3,2-10.3,5.7-14.1c3.7-3.8,8.7-6,14-6.1
	c0.1,0,0.1,0,0.2,0l0.3,0v0h0.5c0.6,0,1.1-0.5,1.1-1.1C123.7,13.2,123.2,12.7,122.7,12.7"/>
<path class="st1" d="M122.7,16.9h-0.5v0l-0.2,0c-0.1,0-0.3,0-0.4,0c-4.7,0.1-9.1,2.1-12.4,5.5c-3.3,3.4-5.1,7.8-5.1,12.5V35
	c0,6.4-2.4,12.5-6.9,17.1c-4.5,4.6-10.6,7.3-17.1,7.3h-0.1h-0.1h-0.2v0H79c-0.6,0-1.1,0.5-1.1,1.1c0,0.6,0.5,1.1,1.1,1.1h0.5l0.2,0
	h0.1c0,0,0,0,0.1,0c0,0,0.1,0,0.1,0c7.1-0.1,13.7-2.9,18.6-8c4.9-5,7.5-11.6,7.5-18.6l0-0.1c0-4.1,1.6-8.1,4.5-11
	c2.9-3,6.8-4.7,10.9-4.8c0.1,0,0.2,0,0.3,0l0.2,0v0h0.5c0.6,0,1.1-0.5,1.1-1.1C123.7,17.4,123.2,16.9,122.7,16.9"/>
<path class="st2" d="M122.7,21.1h-0.5v0.2l0-0.2h-0.2c-0.2,0-0.3,0-0.5,0c-3.7,0.2-7.1,1.7-9.6,4.4c-2.4,2.6-3.6,5.9-3.6,9.4l0,0.1
	c0,7.5-2.9,14.6-8.2,20c-5.3,5.4-12.5,8.5-20.1,8.5h-0.1h-0.1h-0.2v0H79c-0.6,0-1.1,0.5-1.1,1.1c0,0.6,0.5,1.1,1.1,1.1h0.5h0.2h0.1
	c0,0,0.1,0,0.1,0c8.2-0.1,15.9-3.3,21.6-9.2c5.7-5.8,8.8-13.5,8.8-21.6c0,0,0,0,0-0.1c0,0,0,0,0,0c0-2.9,1.1-5.7,3.1-7.9
	c2.1-2.3,5-3.6,8.1-3.8c0.1,0,0.2,0,0.4,0l0.3,0v0h0.5c0.6,0,1.1-0.5,1.1-1.1C123.7,21.6,123.2,21.1,122.7,21.1"/>
<path class="st3" d="M122.7,25.4h-0.5l-0.2,0c-0.2,0-0.4,0-0.6,0c-2.5,0.2-4.9,1.3-6.5,3.3c-1.5,1.7-2.3,4-2.3,6.3v0.1
	c0,8.7-3.4,16.9-9.6,23.1c-6.2,6.2-14.4,9.6-23.1,9.7h-0.1l-0.2,0v0H79c-0.6,0-1.1,0.5-1.1,1.1c0,0.6,0.5,1.1,1.1,1.1h0.5v0l0.3,0
	c9.3,0,18-3.7,24.6-10.3c6.6-6.6,10.2-15.3,10.2-24.6V35c0-1.8,0.6-3.6,1.8-4.9c1.3-1.5,3.1-2.4,5.1-2.5c0.1,0,0.3,0,0.5,0l0.2,0v0
	h0.5c0.6,0,1.1-0.5,1.1-1.1C123.7,25.8,123.2,25.4,122.7,25.4"/>
<path class="st4" d="M79,53.1h0.5l0.2,0c0.1,0,0.3,0,0.4,0c4.7-0.1,9.1-2.1,12.4-5.5c3.3-3.4,5.1-7.8,5.1-12.5c0,0,0,0,0-0.1v0
	c0-6.4,2.4-12.5,6.9-17.1c4.5-4.6,10.6-7.3,17.1-7.3h0.1h0.1h0.2h0.5c0.6,0,1.1-0.5,1.1-1.1c0-0.6-0.5-1.1-1.1-1.1h-0.5l-0.2,0h-0.1
	c0,0-0.1,0-0.1,0c-7.1,0.1-13.7,2.9-18.6,8c-4.9,5-7.5,11.6-7.5,18.6l0,0.1c0,4.1-1.6,8.1-4.5,11c-2.9,3-6.8,4.7-10.9,4.8
	c-0.1,0-0.2,0-0.3,0l-0.2,0v0H79c-0.6,0-1.1,0.5-1.1,1.1C77.9,52.6,78.4,53.1,79,53.1"/>
<path class="st5" d="M79.1,48.8h0.5l0.3,0c0.1,0,0.3,0,0.5,0c3.7-0.2,7.1-1.7,9.6-4.4c2.4-2.6,3.6-5.9,3.6-9.4v-0.1
	c0-7.5,2.9-14.6,8.2-20c5.3-5.4,12.5-8.5,20.1-8.5c0,0,0,0,0.1,0h0.1l0.1,0v0h0.5c0.6,0,1.1-0.5,1.1-1.1c0-0.6-0.5-1.1-1.1-1.1h-0.5
	H122h-0.1c0,0-0.1,0-0.1,0c-8.2,0.1-15.9,3.3-21.6,9.2c-5.7,5.8-8.8,13.5-8.8,21.6l0,0c0,0,0,0,0,0c0,2.9-1.1,5.7-3.1,7.9
	c-2.1,2.3-5,3.6-8.1,3.8c-0.1,0-0.2,0-0.4,0l-0.3,0v0h-0.5c-0.6,0-1.1,0.5-1.1,1.1C78,48.4,78.5,48.8,79.1,48.8"/>
<path class="st6" d="M79.2,44.6h0.5l0.2,0c0.2,0,0.4,0,0.6,0c2.5-0.2,4.9-1.3,6.5-3.3c1.5-1.7,2.3-4,2.3-6.3v-0.1
	c0-8.7,3.4-16.9,9.6-23.1c6.2-6.2,14.4-9.6,23.1-9.7h0.1h0.2h0.4c0.6,0,1.1-0.5,1.1-1.1S123.2,0,122.7,0h-0.5v0h0H122
	c-9.3,0-18,3.7-24.6,10.3c-6.6,6.6-10.2,15.3-10.2,24.6V35c0,1.8-0.6,3.6-1.8,4.9c-1.3,1.5-3.1,2.4-5.1,2.5c-0.1,0-0.3,0-0.5,0
	l-0.2,0v0h-0.5c-0.6,0-1.1,0.5-1.1,1.1C78.1,44.1,78.6,44.6,79.2,44.6"/>
<path d="M132.4,39.9c1.4,0.6,2.5,1.6,3.4,2.9c0.8,1.2,1.3,2.5,1.6,4.1c0.1,0.9,0.2,2.2,0.2,3.9h-14.3c0.1,2,0.8,3.3,2.1,4.1
	c0.8,0.5,1.7,0.7,2.8,0.7c1.2,0,2.1-0.3,2.8-0.9c0.4-0.3,0.8-0.8,1.1-1.4h5.2c-0.1,1.2-0.8,2.3-1.9,3.5c-1.8,1.9-4.2,2.9-7.4,2.9
	c-2.6,0-4.9-0.8-6.9-2.4c-2-1.6-3-4.2-3-7.8c0-3.4,0.9-6,2.7-7.8c1.8-1.8,4.1-2.7,7-2.7C129.5,39,131,39.3,132.4,39.9 M124.7,44.3
	c-0.7,0.7-1.2,1.8-1.4,3h8.8c-0.1-1.4-0.5-2.4-1.4-3.1c-0.8-0.7-1.8-1.1-3-1.1C126.5,43.2,125.5,43.6,124.7,44.3"/>
<path d="M150.1,39.8c0.9,0.5,1.7,1.2,2.2,2.2v-9.4h5.2v26.5h-5v-2.7c-0.7,1.2-1.6,2-2.5,2.5c-0.9,0.5-2.1,0.8-3.5,0.8
	c-2.3,0-4.2-0.9-5.8-2.8c-1.6-1.9-2.3-4.2-2.3-7.1c0-3.3,0.8-6,2.3-7.9c1.5-1.9,3.6-2.9,6.2-2.9C148.1,39,149.1,39.3,150.1,39.8
	 M151.3,53.8c0.8-1.1,1.1-2.5,1.1-4.2c0-2.4-0.6-4.1-1.8-5.1c-0.7-0.6-1.6-0.9-2.6-0.9c-1.5,0-2.6,0.6-3.3,1.7
	c-0.7,1.1-1.1,2.5-1.1,4.2c0,1.8,0.4,3.3,1.1,4.3c0.7,1.1,1.8,1.6,3.2,1.6C149.5,55.4,150.6,54.9,151.3,53.8"/>
<path d="M165.1,39.5v11.8c0,1.1,0.1,2,0.4,2.5c0.5,1,1.4,1.5,2.7,1.5c1.7,0,2.9-0.7,3.6-2.1c0.3-0.8,0.5-1.8,0.5-3V39.5h5.2v19.6h-5
	v-2.8c0,0.1-0.2,0.2-0.4,0.5c-0.2,0.3-0.4,0.6-0.7,0.8c-0.8,0.7-1.6,1.2-2.3,1.5c-0.7,0.3-1.6,0.4-2.6,0.4c-2.9,0-4.8-1-5.8-3.1
	c-0.6-1.2-0.8-2.8-0.8-5.1V39.5H165.1z"/>
<path d="M191.5,46.5c-0.1-0.7-0.3-1.4-0.7-2c-0.6-0.8-1.5-1.2-2.7-1.2c-1.7,0-2.9,0.9-3.6,2.6c-0.3,0.9-0.5,2.1-0.5,3.6
	c0,1.4,0.2,2.6,0.5,3.5c0.6,1.6,1.8,2.4,3.5,2.4c1.2,0,2.1-0.3,2.6-1c0.5-0.6,0.8-1.5,0.9-2.5h5.2c-0.1,1.6-0.7,3-1.7,4.4
	c-1.6,2.2-4,3.4-7.1,3.4c-3.2,0-5.5-0.9-7-2.8c-1.5-1.9-2.2-4.3-2.2-7.3c0-3.4,0.8-6,2.5-7.9c1.6-1.9,3.9-2.8,6.8-2.8
	c2.5,0,4.5,0.6,6,1.7c1.6,1.1,2.5,3.1,2.8,5.8H191.5z"/>
<path d="M207.3,47.2c1-0.1,1.6-0.3,2-0.4c0.7-0.3,1.1-0.8,1.1-1.5c0-0.8-0.3-1.4-0.8-1.7c-0.6-0.3-1.4-0.5-2.5-0.5
	c-1.2,0-2.1,0.3-2.6,0.9c-0.4,0.4-0.6,1-0.7,1.8h-4.9c0.1-1.7,0.6-3.1,1.4-4.2c1.4-1.7,3.7-2.6,7-2.6c2.2,0,4.1,0.4,5.7,1.3
	c1.7,0.9,2.5,2.5,2.5,4.8v9c0,0.6,0,1.4,0,2.3c0,0.7,0.1,1.1,0.3,1.4c0.2,0.2,0.4,0.4,0.8,0.6v0.8h-5.6c-0.2-0.4-0.3-0.8-0.3-1.1
	c-0.1-0.3-0.1-0.7-0.1-1.2c-0.7,0.8-1.5,1.4-2.5,2c-1.1,0.6-2.4,1-3.8,1c-1.8,0-3.3-0.5-4.4-1.5c-1.2-1-1.7-2.4-1.7-4.3
	c0-2.4,0.9-4.2,2.8-5.2c1-0.6,2.5-1,4.5-1.3L207.3,47.2z M210.4,49.6c-0.3,0.2-0.7,0.4-1,0.5c-0.3,0.1-0.8,0.2-1.4,0.3l-1.2,0.2
	c-1.1,0.2-1.9,0.4-2.4,0.7c-0.8,0.5-1.2,1.2-1.2,2.2c0,0.9,0.2,1.5,0.7,1.9c0.5,0.4,1.1,0.6,1.8,0.6c1.1,0,2.2-0.3,3.1-1
	c0.9-0.6,1.4-1.8,1.5-3.5V49.6z"/>
<path d="M216.6,43.3v-3.7h2.7v-5.5h5.1v5.5h3.2v3.7h-3.2v10.4c0,0.8,0.1,1.3,0.3,1.5c0.2,0.2,0.8,0.3,1.9,0.3c0.2,0,0.3,0,0.5,0
	c0.2,0,0.3,0,0.5,0v3.8l-2.4,0.1c-2.4,0.1-4.1-0.3-5-1.3c-0.6-0.6-0.9-1.5-0.9-2.7V43.3H216.6z"/>
<path d="M235.2,37.2H230v-4.7h5.2V37.2z M230,39.5h5.2v19.6H230V39.5z"/>
<path d="M255.1,56.7c-1.7,2-4.2,3.1-7.5,3.1c-3.4,0-5.9-1-7.5-3.1c-1.7-2-2.5-4.5-2.5-7.4c0-2.8,0.8-5.3,2.5-7.3
	c1.7-2.1,4.2-3.1,7.5-3.1c3.4,0,5.9,1,7.5,3.1c1.7,2.1,2.5,4.5,2.5,7.3C257.6,52.2,256.7,54.7,255.1,56.7 M251,53.9
	c0.8-1.1,1.2-2.6,1.2-4.5c0-2-0.4-3.5-1.2-4.5c-0.8-1.1-2-1.6-3.5-1.6c-1.5,0-2.7,0.5-3.5,1.6c-0.8,1.1-1.2,2.6-1.2,4.5
	c0,2,0.4,3.5,1.2,4.5c0.8,1.1,2,1.6,3.5,1.6C249,55.5,250.2,54.9,251,53.9"/>
<path d="M275.9,40.6c1.3,1.1,1.9,2.8,1.9,5.3v13.2h-5.3V47.2c0-1-0.1-1.8-0.4-2.4c-0.5-1-1.5-1.5-2.9-1.5c-1.7,0-2.9,0.7-3.6,2.2
	c-0.3,0.8-0.5,1.8-0.5,3v10.6h-5.1V39.5h5v2.9c0.7-1,1.3-1.7,1.9-2.2c1.1-0.8,2.4-1.2,4-1.2C273,39,274.7,39.6,275.9,40.6"/>
<path d="M17.6,33.5c-1.7,2-4.2,3.1-7.5,3.1c-3.4,0-5.9-1-7.5-3.1C0.8,31.5,0,29,0,26.2c0-2.8,0.8-5.3,2.5-7.3
	c1.7-2.1,4.2-3.1,7.5-3.1c3.4,0,5.9,1,7.5,3.1c1.7,2.1,2.5,4.5,2.5,7.3C20,29,19.2,31.5,17.6,33.5 M13.5,30.7
	c0.8-1.1,1.2-2.6,1.2-4.5c0-2-0.4-3.5-1.2-4.5c-0.8-1.1-2-1.6-3.5-1.6c-1.5,0-2.7,0.5-3.5,1.6c-0.8,1.1-1.2,2.6-1.2,4.5
	c0,2,0.4,3.5,1.2,4.5c0.8,1.1,2,1.6,3.5,1.6C11.5,32.3,12.7,31.8,13.5,30.7"/>
<path d="M38.2,18.4c1.6,1.7,2.4,4.2,2.4,7.4c0,3.5-0.8,6.1-2.3,7.9c-1.6,1.8-3.6,2.7-6,2.7c-1.6,0-2.9-0.4-3.9-1.2
	c-0.6-0.4-1.1-1.1-1.7-1.9v10.2h-5.1V16.3h4.9v2.9c0.6-0.9,1.1-1.5,1.8-2c1.1-0.9,2.5-1.3,4.1-1.3C34.6,15.9,36.6,16.7,38.2,18.4
	 M34.3,22.1c-0.7-1.2-1.8-1.7-3.4-1.7c-1.9,0-3.2,0.9-3.9,2.6c-0.4,0.9-0.5,2.1-0.5,3.6c0,2.3,0.6,3.9,1.8,4.8
	c0.7,0.5,1.6,0.8,2.6,0.8c1.4,0,2.5-0.6,3.3-1.7c0.8-1.1,1.1-2.6,1.1-4.4C35.3,24.6,35,23.3,34.3,22.1"/>
<path d="M56,16.7c1.4,0.6,2.5,1.6,3.4,2.9c0.8,1.2,1.3,2.5,1.6,4.1c0.1,0.9,0.2,2.2,0.2,3.9H46.8c0.1,2,0.8,3.3,2.1,4.1
	c0.8,0.5,1.7,0.7,2.8,0.7c1.2,0,2.1-0.3,2.8-0.9c0.4-0.3,0.8-0.8,1.1-1.4h5.2c-0.1,1.2-0.8,2.3-1.9,3.5c-1.8,1.9-4.2,2.9-7.4,2.9
	c-2.6,0-4.9-0.8-6.9-2.4c-2-1.6-3-4.2-3-7.8c0-3.4,0.9-6,2.7-7.8c1.8-1.8,4.1-2.7,7-2.7C53.1,15.8,54.6,16.1,56,16.7 M48.3,21.2
	c-0.7,0.7-1.2,1.8-1.4,3h8.8c-0.1-1.4-0.5-2.4-1.4-3.1c-0.8-0.7-1.8-1.1-3-1.1C50.1,20,49.1,20.4,48.3,21.2"/>
<path d="M78.5,17.5c1.3,1.1,1.9,2.8,1.9,5.3v13.2h-5.3V24c0-1-0.1-1.8-0.4-2.4c-0.5-1-1.5-1.5-2.9-1.5c-1.7,0-2.9,0.7-3.6,2.2
	c-0.3,0.8-0.5,1.8-0.5,3v10.6h-5.1V16.4h5v2.9c0.7-1,1.3-1.7,1.9-2.2c1.1-0.8,2.4-1.2,4-1.2C75.6,15.9,77.2,16.4,78.5,17.5"/>
</svg>
