<?xml version="1.0" encoding="utf-8"?>
<!-- Generator: Adobe Illustrator 19.2.0, SVG Export Plug-In . SVG Version: 6.00 Build 0)  -->
<svg version="1.1" id="Layer_1" xmlns="http://www.w3.org/2000/svg" xmlns:xlink="http://www.w3.org/1999/xlink" x="0px" y="0px"
	 viewBox="0 0 253.4 62" style="enable-background:new 0 0 253.4 62;" xml:space="preserve">
<style type="text/css">
	.st0{fill:#757576;}
</style>
<path d="M38.6,11.9h-0.5h-0.3c-0.1,0-0.1,0-0.2,0c-5.1,0.1-9.8,2.1-13.4,5.8c-3.5,3.6-5.5,8.4-5.5,13.5c0,4.6-1.7,8.9-4.9,12.2
	c-3.2,3.3-7.5,5.1-12.1,5.2c-0.1,0-0.1,0-0.2,0l-0.3,0v0H0.9c-0.5,0-0.9,0.4-0.9,0.9c0,0.5,0.4,0.9,0.9,0.9h0.5l0.3,0
	c0.1,0,0.1,0,0.2,0c5.1-0.1,9.8-2.1,13.4-5.8c3.5-3.6,5.5-8.4,5.5-13.5c0-4.6,1.7-8.9,4.9-12.2c3.2-3.3,7.5-5.1,12.1-5.2
	c0.1,0,0.1,0,0.2,0h0.3v0h0.5c0.5,0,0.9-0.4,0.9-0.9C39.5,12.3,39.1,11.9,38.6,11.9"/>
<path d="M38.6,15.5h-0.5v0l-0.2,0c-0.1,0-0.2,0-0.3,0c-4.1,0.1-7.9,1.8-10.7,4.7C24,23.1,22.5,27,22.5,31l0,0.1
	c0,5.5-2.1,10.8-6,14.7c-3.9,4-9.2,6.3-14.8,6.3H1.7H1.6l-0.2,0v0H0.9c-0.5,0-0.9,0.4-0.9,0.9C0,53.6,0.4,54,0.9,54h0.5h0.2h0.1h0.1
	h0.1c6.1-0.1,11.8-2.5,16.1-6.9c4.2-4.3,6.5-10,6.5-16l0-0.1c0-3.6,1.4-7,3.9-9.5c2.5-2.6,5.9-4,9.4-4.1c0.1,0,0.2,0,0.3,0l0.2,0v0
	h0.5c0.5,0,0.9-0.4,0.9-0.9C39.5,15.9,39.1,15.5,38.6,15.5"/>
<path d="M38.6,19.2h-0.5v0.2l0-0.2l-0.2,0c-0.1,0-0.3,0-0.4,0c-3.2,0.1-6.1,1.5-8.2,3.8c-2,2.2-3.1,5.1-3.1,8.1l0,0.1
	c0,6.5-2.5,12.6-7.1,17.3c-4.6,4.7-10.8,7.3-17.4,7.3c0,0,0,0-0.1,0H1.6H1.4v0H0.9c-0.5,0-0.9,0.4-0.9,0.9c0,0.5,0.4,0.9,0.9,0.9
	h0.5h0.2h0.1c0,0,0.1,0,0.1,0c7.1-0.1,13.7-2.9,18.7-7.9c4.9-5,7.6-11.6,7.6-18.6c0,0,0,0,0,0v0c0-2.5,0.9-4.9,2.6-6.8
	c1.8-2,4.3-3.1,7-3.2c0.1,0,0.2,0,0.3,0l0.2,0v0h0.5c0.5,0,0.9-0.4,0.9-0.9C39.5,19.6,39.1,19.2,38.6,19.2"/>
<path d="M38.6,22.8h-0.5l-0.2,0c-0.2,0-0.4,0-0.5,0c-2.2,0.2-4.2,1.2-5.6,2.8c-1.3,1.5-2,3.4-2,5.5v0.1c0,7.5-2.9,14.6-8.2,19.9
	c-5.3,5.3-12.4,8.3-19.9,8.3H1.6H1.4v0H0.9c-0.5,0-0.9,0.4-0.9,0.9c0,0.5,0.4,0.9,0.9,0.9h0.5h0.3c8,0,15.5-3.2,21.2-8.9
	c5.7-5.7,8.8-13.2,8.8-21.2v-0.1c0-1.6,0.5-3.1,1.5-4.3c1.1-1.3,2.7-2.1,4.4-2.2c0.1,0,0.2,0,0.4,0l0.2,0v0h0.5
	c0.5,0,0.9-0.4,0.9-0.9S39.1,22.8,38.6,22.8"/>
<path d="M0.9,46.7h0.5h0.2c0.1,0,0.2,0,0.3,0C6,46.6,9.8,44.9,12.6,42c2.8-2.9,4.4-6.8,4.4-10.8v0l0,0c0-5.5,2.1-10.8,6-14.7
	c3.9-4,9.2-6.3,14.8-6.3h0.1h0.1h0.2h0.5c0.5,0,0.9-0.4,0.9-0.9c0-0.5-0.4-0.9-0.9-0.9h-0.5l-0.2,0h-0.1c0,0-0.1,0-0.1,0
	c-6.1,0.1-11.8,2.5-16.1,6.9c-4.2,4.3-6.5,10-6.5,16l0,0.1c0,3.6-1.4,7-3.9,9.5c-2.5,2.6-5.9,4-9.4,4.1c-0.1,0-0.2,0-0.3,0l-0.2,0v0
	H0.9c-0.5,0-0.9,0.4-0.9,0.9C0,46.3,0.4,46.7,0.9,46.7"/>
<path d="M0.9,43.1h0.5l0.2,0c0.1,0,0.3,0,0.4,0c3.2-0.1,6.1-1.5,8.2-3.8c2-2.2,3.1-5.1,3.1-8.1l0-0.1c0-6.5,2.5-12.6,7.1-17.3
	c4.6-4.7,10.8-7.3,17.4-7.3h0.1h0.1H38h0.5c0.5,0,0.9-0.4,0.9-0.9c0-0.5-0.4-0.9-0.9-0.9H38h-0.1h-0.1c0,0,0,0-0.1,0
	c-7.1,0.1-13.7,2.9-18.7,7.9c-4.9,5-7.6,11.6-7.6,18.6l0,0c0,0,0,0,0,0c0,2.5-0.9,4.9-2.6,6.8c-1.8,2-4.3,3.1-7,3.2
	c-0.1,0-0.2,0-0.3,0l-0.2,0v0H0.9c-0.5,0-0.9,0.4-0.9,0.9S0.4,43.1,0.9,43.1"/>
<path d="M0.9,39.4h0.5l0.2,0c0.2,0,0.4,0,0.5,0c2.2-0.2,4.2-1.2,5.6-2.8c1.3-1.5,2-3.4,2-5.5V31c0-7.5,2.9-14.6,8.2-19.9
	c5.3-5.3,12.4-8.3,19.9-8.3H38h0.1h0.3c0.5,0,0.9-0.4,0.9-0.9c0-0.5-0.4-0.9-0.9-0.9H38v0h0h-0.1c-8,0-15.5,3.2-21.2,8.9
	C11,15.5,7.9,23,7.9,31v0.1c0,1.6-0.5,3.1-1.5,4.3c-1.1,1.3-2.7,2.1-4.4,2.2c-0.1,0-0.2,0-0.4,0l-0.2,0v0H0.9C0.4,37.6,0,38,0,38.5
	S0.4,39.4,0.9,39.4"/>
<path d="M52.9,18.8c0.2,1.2,0.5,2.1,1,2.7c0.9,1.1,2.4,1.6,4.6,1.6c1.3,0,2.4-0.1,3.2-0.4c1.5-0.5,2.3-1.5,2.3-3
	c0-0.9-0.4-1.5-1.1-2c-0.8-0.5-2-0.9-3.6-1.2l-2.8-0.6c-2.8-0.6-4.7-1.3-5.7-2c-1.8-1.2-2.6-3.1-2.6-5.6c0-2.3,0.9-4.3,2.6-5.8
	C52.4,0.8,54.9,0,58.2,0c2.8,0,5.1,0.7,7.1,2.2c2,1.5,3,3.6,3.1,6.3h-5.2c-0.1-1.6-0.8-2.7-2.1-3.3c-0.9-0.4-1.9-0.7-3.2-0.7
	c-1.4,0-2.6,0.3-3.4,0.8c-0.9,0.6-1.3,1.4-1.3,2.4c0,0.9,0.4,1.6,1.3,2.1c0.5,0.3,1.7,0.7,3.5,1.1l4.6,1.1c2,0.5,3.5,1.1,4.5,1.9
	c1.6,1.2,2.3,3,2.3,5.3c0,2.4-0.9,4.4-2.8,5.9c-1.8,1.6-4.4,2.4-7.8,2.4c-3.4,0-6.1-0.8-8.1-2.3c-2-1.5-2.9-3.7-2.9-6.4H52.9z"/>
<rect x="70.7" y="0.8" width="5" height="26"/>
<path d="M95,24.4c-1.6,2-4.1,3-7.4,3c-3.3,0-5.8-1-7.4-3c-1.6-2-2.4-4.4-2.4-7.2c0-2.8,0.8-5.2,2.4-7.2c1.6-2,4.1-3.1,7.4-3.1
	c3.3,0,5.8,1,7.4,3.1c1.6,2,2.4,4.4,2.4,7.2C97.4,20,96.6,22.4,95,24.4 M90.9,21.7c0.8-1,1.2-2.5,1.2-4.5c0-1.9-0.4-3.4-1.2-4.5
	c-0.8-1-1.9-1.6-3.4-1.6c-1.5,0-2.6,0.5-3.4,1.6c-0.8,1-1.2,2.5-1.2,4.5c0,1.9,0.4,3.4,1.2,4.5c0.8,1,1.9,1.6,3.4,1.6
	C89,23.2,90.2,22.7,90.9,21.7"/>
<polygon points="108,7.5 113.1,7.5 116.1,21.4 119.1,7.5 124.3,7.5 118.7,26.8 113.6,26.8 110.5,12.8 107.5,26.8 102.3,26.8 
	96.8,7.5 102.3,7.5 105.3,21.3 "/>
<polygon points="134.9,0.8 153.5,0.8 153.5,5.4 140.3,5.4 140.3,11.4 151.9,11.4 151.9,15.9 140.3,15.9 140.3,26.8 134.9,26.8 "/>
<path d="M161.7,15.1c0.9-0.1,1.6-0.3,2-0.4c0.7-0.3,1.1-0.8,1.1-1.4c0-0.8-0.3-1.3-0.8-1.6c-0.6-0.3-1.4-0.4-2.4-0.4
	c-1.2,0-2.1,0.3-2.6,0.9c-0.4,0.4-0.6,1-0.7,1.8h-4.9c0.1-1.7,0.6-3.1,1.4-4.1c1.3-1.7,3.6-2.5,6.9-2.5c2.1,0,4,0.4,5.6,1.3
	c1.6,0.8,2.5,2.4,2.5,4.7v8.8c0,0.6,0,1.4,0,2.2c0,0.7,0.1,1.1,0.3,1.3c0.2,0.2,0.4,0.4,0.7,0.6v0.7h-5.5c-0.2-0.4-0.3-0.8-0.3-1.1
	c-0.1-0.3-0.1-0.7-0.1-1.2c-0.7,0.8-1.5,1.4-2.4,1.9c-1.1,0.6-2.3,0.9-3.7,0.9c-1.8,0-3.2-0.5-4.3-1.5c-1.1-1-1.7-2.4-1.7-4.2
	c0-2.4,0.9-4.1,2.8-5.1c1-0.6,2.5-1,4.4-1.2L161.7,15.1z M164.8,17.4c-0.3,0.2-0.6,0.4-1,0.5c-0.3,0.1-0.8,0.2-1.4,0.3l-1.1,0.2
	c-1.1,0.2-1.8,0.4-2.3,0.7c-0.8,0.5-1.2,1.2-1.2,2.1c0,0.9,0.2,1.5,0.7,1.9c0.5,0.4,1.1,0.6,1.8,0.6c1.1,0,2.1-0.3,3-1
	c0.9-0.6,1.4-1.8,1.4-3.5V17.4z"/>
<path d="M184.2,14.4c-0.1-0.7-0.3-1.4-0.7-1.9c-0.6-0.8-1.4-1.2-2.6-1.2c-1.7,0-2.9,0.8-3.5,2.5c-0.3,0.9-0.5,2.1-0.5,3.6
	c0,1.4,0.2,2.5,0.5,3.4c0.6,1.6,1.7,2.4,3.4,2.4c1.2,0,2-0.3,2.5-1c0.5-0.6,0.8-1.5,0.9-2.5h5.1c-0.1,1.5-0.7,3-1.7,4.3
	c-1.6,2.2-3.9,3.3-7,3.3c-3.1,0-5.4-0.9-6.8-2.8c-1.5-1.8-2.2-4.2-2.2-7.1c0-3.3,0.8-5.9,2.4-7.7c1.6-1.8,3.8-2.8,6.7-2.8
	c2.4,0,4.4,0.5,5.9,1.6c1.5,1.1,2.4,3,2.7,5.7H184.2z"/>
<path d="M189.6,11.3V7.7h2.7V2.3h5v5.4h3.1v3.6h-3.1v10.2c0,0.8,0.1,1.3,0.3,1.5c0.2,0.2,0.8,0.3,1.8,0.3c0.2,0,0.3,0,0.5,0
	c0.2,0,0.3,0,0.5,0V27l-2.4,0.1c-2.4,0.1-4-0.3-4.9-1.2c-0.6-0.6-0.8-1.5-0.8-2.7V11.3H189.6z"/>
<path d="M218.1,24.4c-1.6,2-4.1,3-7.4,3c-3.3,0-5.8-1-7.4-3c-1.6-2-2.4-4.4-2.4-7.2c0-2.8,0.8-5.2,2.4-7.2c1.6-2,4.1-3.1,7.4-3.1
	c3.3,0,5.8,1,7.4,3.1c1.6,2,2.4,4.4,2.4,7.2C220.5,20,219.7,22.4,218.1,24.4 M214.1,21.7c0.8-1,1.2-2.5,1.2-4.5
	c0-1.9-0.4-3.4-1.2-4.5c-0.8-1-1.9-1.6-3.4-1.6c-1.5,0-2.6,0.5-3.4,1.6c-0.8,1-1.2,2.5-1.2,4.5c0,1.9,0.4,3.4,1.2,4.5
	c0.8,1,1.9,1.6,3.4,1.6C212.1,23.2,213.3,22.7,214.1,21.7"/>
<path d="M233,7.1c0.1,0,0.2,0,0.4,0v5.2c-0.3,0-0.6-0.1-0.8-0.1c-0.2,0-0.4,0-0.6,0c-2,0-3.4,0.7-4.1,2c-0.4,0.7-0.6,1.9-0.6,3.4
	v9.2h-5.1V7.5h4.8v3.4c0.8-1.3,1.5-2.2,2-2.6c0.9-0.8,2.2-1.2,3.7-1.2C232.8,7.1,232.9,7.1,233,7.1"/>
<path d="M237,30.5l0.6,0c0.5,0,1,0,1.4-0.1c0.4-0.1,0.8-0.2,1.1-0.4c0.3-0.2,0.6-0.6,0.8-1.3c0.3-0.6,0.4-1,0.3-1.2l-7.1-20.1h5.6
	l4.2,14.2l4-14.2h5.4l-6.6,18.9c-1.3,3.6-2.3,5.9-3,6.8c-0.7,0.9-2.2,1.3-4.5,1.3c-0.4,0-0.8,0-1.1,0c-0.3,0-0.7,0-1.2-0.1V30.5z"/>
<polygon class="st0" points="49,35.3 67.5,35.3 67.5,39.9 54.4,39.9 54.4,45.9 65.9,45.9 65.9,50.4 54.4,50.4 54.4,61.3 49,61.3 "/>
<path class="st0" d="M84.7,58.9c-1.6,2-4.1,3-7.4,3c-3.3,0-5.8-1-7.4-3c-1.6-2-2.4-4.4-2.4-7.2c0-2.8,0.8-5.2,2.4-7.2
	c1.6-2,4.1-3.1,7.4-3.1c3.3,0,5.8,1,7.4,3.1c1.6,2,2.4,4.4,2.4,7.2C87.2,54.5,86.4,56.9,84.7,58.9 M80.7,56.2c0.8-1,1.2-2.5,1.2-4.5
	c0-1.9-0.4-3.4-1.2-4.5c-0.8-1-1.9-1.6-3.4-1.6c-1.5,0-2.6,0.5-3.4,1.6c-0.8,1-1.2,2.5-1.2,4.5c0,1.9,0.4,3.4,1.2,4.5
	c0.8,1,1.9,1.6,3.4,1.6C78.8,57.7,79.9,57.2,80.7,56.2"/>
<path class="st0" d="M94.2,42.1v11.6c0,1.1,0.1,1.9,0.4,2.5c0.5,1,1.4,1.5,2.7,1.5c1.7,0,2.9-0.7,3.5-2.1c0.3-0.8,0.5-1.7,0.5-3
	V42.1h5.1v19.2h-4.9v-2.7c0,0.1-0.2,0.2-0.4,0.5c-0.2,0.3-0.4,0.6-0.7,0.8c-0.8,0.7-1.5,1.2-2.3,1.4c-0.7,0.3-1.6,0.4-2.6,0.4
	c-2.8,0-4.8-1-5.7-3.1c-0.6-1.1-0.8-2.8-0.8-5V42.1H94.2z"/>
<path class="st0" d="M124.6,43.2c1.3,1,1.9,2.8,1.9,5.2v13h-5.2V49.6c0-1-0.1-1.8-0.4-2.3c-0.5-1-1.4-1.5-2.8-1.5
	c-1.7,0-2.9,0.7-3.5,2.2c-0.3,0.8-0.5,1.7-0.5,2.9v10.4h-5V42.1h4.9v2.8c0.6-1,1.3-1.7,1.8-2.1c1-0.8,2.3-1.2,3.9-1.2
	C121.7,41.6,123.3,42.1,124.6,43.2"/>
<path class="st0" d="M140,42.4c0.9,0.5,1.6,1.2,2.2,2.1v-9.2h5.1v26h-4.9v-2.7c-0.7,1.1-1.5,2-2.5,2.5c-0.9,0.5-2.1,0.8-3.4,0.8
	c-2.2,0-4.1-0.9-5.7-2.7c-1.5-1.8-2.3-4.2-2.3-7c0-3.3,0.8-5.9,2.3-7.8c1.5-1.9,3.5-2.8,6.1-2.8C138,41.6,139,41.9,140,42.4
	 M141.2,56.1c0.7-1.1,1.1-2.4,1.1-4.1c0-2.4-0.6-4-1.8-5c-0.7-0.6-1.6-0.9-2.5-0.9c-1.5,0-2.6,0.6-3.2,1.7c-0.7,1.1-1,2.5-1,4.1
	c0,1.8,0.4,3.2,1.1,4.3c0.7,1.1,1.8,1.6,3.2,1.6S140.4,57.1,141.2,56.1"/>
<path class="st0" d="M158.3,49.6c0.9-0.1,1.6-0.3,2-0.4c0.7-0.3,1.1-0.8,1.1-1.4c0-0.8-0.3-1.3-0.8-1.6c-0.6-0.3-1.4-0.4-2.4-0.4
	c-1.2,0-2.1,0.3-2.6,0.9c-0.4,0.4-0.6,1-0.7,1.8H150c0.1-1.7,0.6-3.1,1.4-4.1c1.3-1.7,3.6-2.5,6.9-2.5c2.1,0,4,0.4,5.6,1.3
	c1.6,0.8,2.5,2.4,2.5,4.7v8.8c0,0.6,0,1.4,0,2.2c0,0.7,0.1,1.1,0.3,1.3c0.2,0.2,0.4,0.4,0.7,0.6v0.7H162c-0.2-0.4-0.3-0.8-0.3-1.1
	c-0.1-0.3-0.1-0.7-0.1-1.2c-0.7,0.8-1.5,1.4-2.4,1.9c-1.1,0.6-2.3,0.9-3.7,0.9c-1.8,0-3.2-0.5-4.3-1.5c-1.1-1-1.7-2.4-1.7-4.2
	c0-2.4,0.9-4.1,2.8-5.1c1-0.6,2.5-1,4.4-1.2L158.3,49.6z M161.3,51.9c-0.3,0.2-0.6,0.4-1,0.5c-0.3,0.1-0.8,0.2-1.4,0.3l-1.1,0.2
	c-1.1,0.2-1.8,0.4-2.3,0.7c-0.8,0.5-1.2,1.2-1.2,2.1c0,0.9,0.2,1.5,0.7,1.9c0.5,0.4,1.1,0.6,1.8,0.6c1.1,0,2.1-0.3,3-1
	c0.9-0.6,1.4-1.8,1.4-3.5V51.9z"/>
<path class="st0" d="M167.9,45.8v-3.6h2.7v-5.4h5v5.4h3.1v3.6h-3.1V56c0,0.8,0.1,1.3,0.3,1.5c0.2,0.2,0.8,0.3,1.8,0.3
	c0.2,0,0.3,0,0.5,0c0.2,0,0.3,0,0.5,0v3.8l-2.4,0.1c-2.4,0.1-4-0.3-4.9-1.2c-0.6-0.6-0.8-1.5-0.8-2.7V45.8H167.9z"/>
<path class="st0" d="M186.3,39.8h-5.1v-4.6h5.1V39.8z M181.2,42.1h5.1v19.2h-5.1V42.1z"/>
<path class="st0" d="M206.1,58.9c-1.6,2-4.1,3-7.4,3c-3.3,0-5.8-1-7.4-3c-1.6-2-2.4-4.4-2.4-7.2c0-2.8,0.8-5.2,2.4-7.2
	c1.6-2,4.1-3.1,7.4-3.1c3.3,0,5.8,1,7.4,3.1c1.6,2,2.4,4.4,2.4,7.2C208.5,54.5,207.7,56.9,206.1,58.9 M202,56.2
	c0.8-1,1.2-2.5,1.2-4.5c0-1.9-0.4-3.4-1.2-4.5c-0.8-1-1.9-1.6-3.4-1.6c-1.5,0-2.6,0.5-3.4,1.6c-0.8,1-1.2,2.5-1.2,4.5
	c0,1.9,0.4,3.4,1.2,4.5c0.8,1,1.9,1.6,3.4,1.6C200.1,57.7,201.3,57.2,202,56.2"/>
<path class="st0" d="M226.1,43.2c1.3,1,1.9,2.8,1.9,5.2v13h-5.2V49.6c0-1-0.1-1.8-0.4-2.3c-0.5-1-1.4-1.5-2.8-1.5
	c-1.7,0-2.9,0.7-3.5,2.2c-0.3,0.8-0.5,1.7-0.5,2.9v10.4h-5V42.1h4.9v2.8c0.6-1,1.3-1.7,1.8-2.1c1-0.8,2.3-1.2,3.9-1.2
	C223.2,41.6,224.9,42.1,226.1,43.2"/>
</svg>
