<?xml version="1.0" encoding="utf-8"?>
<!-- Generator: Adobe Illustrator 19.2.0, SVG Export Plug-In . SVG Version: 6.00 Build 0)  -->
<svg version="1.1" id="Layer_1" xmlns="http://www.w3.org/2000/svg" xmlns:xlink="http://www.w3.org/1999/xlink" x="0px" y="0px"
	 viewBox="0 0 183.3 70.1" style="enable-background:new 0 0 183.3 70.1;" xml:space="preserve">
<style type="text/css">
	.st0{fill:#899EA2;}
	.st1{fill:#6D8FAC;}
	.st2{fill:#4D82B3;}
	.st3{fill:#1C75BC;}
	.st4{fill:#A4AF97;}
	.st5{fill:#C0C089;}
	.st6{fill:#DDD378;}
</style>
<g>
	<path class="st0" d="M131.4,12.7h-0.5h-0.3c-0.1,0-0.2,0-0.2,0c-5.9,0.1-11.4,2.5-15.5,6.7c-4.1,4.2-6.4,9.8-6.3,15.6
		c0,5.3-2,10.3-5.7,14.1c-3.7,3.8-8.7,6-14,6.1c-0.1,0-0.1,0-0.2,0h-0.3v0h-0.5c-0.6,0-1.1,0.5-1.1,1.1c0,0.6,0.5,1.1,1.1,1.1h0.5
		h0.3c0.1,0,0.2,0,0.2,0c5.9-0.1,11.4-2.5,15.5-6.7c4.1-4.2,6.4-9.8,6.3-15.6c0-5.3,2-10.3,5.7-14.1c3.7-3.8,8.7-6,14-6.1
		c0.1,0,0.1,0,0.2,0l0.3,0v0h0.5c0.6,0,1.1-0.5,1.1-1.1S132,12.7,131.4,12.7"/>
	<path class="st1" d="M131.4,16.9h-0.5v0l-0.2,0c-0.1,0-0.3,0-0.4,0c-4.7,0.1-9.1,2.1-12.4,5.5c-3.3,3.4-5.1,7.8-5.1,12.5v0.1
		c0,6.4-2.4,12.5-6.9,17.1c-4.5,4.7-10.6,7.3-17.1,7.3h-0.1h-0.1h-0.2v0h-0.5c-0.6,0-1.1,0.5-1.1,1.1s0.5,1.1,1.1,1.1h0.5l0.2,0h0.1
		c0,0,0,0,0.1,0c0,0,0.1,0,0.1,0c7.1-0.1,13.7-2.9,18.6-8c4.9-5,7.5-11.6,7.5-18.6l0-0.1c0-4.1,1.6-8.1,4.5-11.1
		c2.9-3,6.8-4.7,11-4.8c0.1,0,0.2,0,0.3,0l0.2,0v0h0.5c0.6,0,1.1-0.5,1.1-1.1C132.4,17.4,132,16.9,131.4,16.9"/>
	<path class="st2" d="M131.4,21.2h-0.5v0.2l0-0.2h-0.2c-0.2,0-0.3,0-0.5,0c-3.7,0.2-7.1,1.7-9.6,4.4c-2.4,2.6-3.7,5.9-3.6,9.4l0,0.1
		c0,7.5-2.9,14.7-8.2,20.1c-5.4,5.4-12.5,8.5-20.2,8.5h-0.1h-0.1h-0.2v0h-0.5c-0.6,0-1.1,0.5-1.1,1.1c0,0.6,0.5,1.1,1.1,1.1h0.5h0.2
		h0.1c0,0,0.1,0,0.1,0c8.2-0.1,15.9-3.3,21.7-9.2c5.7-5.8,8.8-13.5,8.8-21.6V35c0,0,0,0,0,0c0-2.9,1.1-5.7,3.1-7.9
		c2.1-2.3,5-3.6,8.1-3.8c0.1,0,0.2,0,0.4,0l0.3,0v0h0.5c0.6,0,1.1-0.5,1.1-1.1C132.4,21.7,132,21.2,131.4,21.2"/>
	<path class="st3" d="M131.4,25.4h-0.5l-0.2,0c-0.2,0-0.4,0-0.6,0c-2.5,0.2-4.9,1.3-6.5,3.3c-1.5,1.7-2.3,4-2.3,6.3v0.1
		c0,8.7-3.4,16.9-9.6,23.1c-6.2,6.2-14.4,9.6-23.1,9.7h-0.1l-0.2,0v0h-0.5c-0.6,0-1.1,0.5-1.1,1.1c0,0.6,0.5,1.1,1.1,1.1h0.5v0
		l0.3,0c9.3,0,18-3.7,24.6-10.3c6.6-6.6,10.2-15.4,10.2-24.7l0-0.1c0-1.8,0.6-3.6,1.8-4.9c1.3-1.5,3.1-2.4,5.1-2.5
		c0.1,0,0.3,0,0.5,0l0.2,0v0h0.5c0.6,0,1.1-0.5,1.1-1.1C132.4,25.9,132,25.4,131.4,25.4"/>
	<path class="st4" d="M87.6,53.2h0.5l0.2,0c0.1,0,0.3,0,0.4,0c4.7-0.1,9.1-2.1,12.4-5.5c3.3-3.4,5.1-7.8,5.1-12.5c0,0,0,0,0-0.1l0,0
		c0-6.4,2.4-12.5,6.9-17.1c4.5-4.7,10.6-7.3,17.1-7.3h0.1h0.1h0.2h0.5c0.6,0,1.1-0.5,1.1-1.1c0-0.6-0.5-1.1-1.1-1.1h-0.5l-0.2,0
		h-0.1c0,0-0.1,0-0.1,0c-7.1,0.1-13.7,2.9-18.6,8c-4.9,5-7.5,11.6-7.5,18.6l0,0.1c0,4.1-1.6,8.1-4.5,11.1c-2.9,3-6.8,4.7-11,4.8
		c-0.1,0-0.2,0-0.3,0l-0.2,0v0h-0.5c-0.6,0-1.1,0.5-1.1,1.1C86.6,52.7,87,53.2,87.6,53.2"/>
	<path class="st5" d="M87.6,48.9h0.5l0.3,0c0.1,0,0.3,0,0.5,0c3.7-0.2,7.1-1.7,9.6-4.4c2.4-2.6,3.7-5.9,3.6-9.4V35
		c0-7.5,2.9-14.7,8.2-20.1c5.4-5.4,12.5-8.5,20.2-8.5c0,0,0,0,0.1,0h0.1l0.1,0v0h0.5c0.6,0,1.1-0.5,1.1-1.1c0-0.6-0.5-1.1-1.1-1.1
		h-0.5h-0.1h-0.1c0,0-0.1,0-0.1,0c-8.2,0.1-15.9,3.3-21.7,9.2c-5.7,5.8-8.8,13.5-8.8,21.6l0,0c0,0,0,0,0,0c0,2.9-1.1,5.7-3.1,7.9
		c-2.1,2.3-5,3.6-8.1,3.8c-0.1,0-0.2,0-0.4,0l-0.3,0v0h-0.5c-0.6,0-1.1,0.5-1.1,1.1C86.6,48.4,87,48.9,87.6,48.9"/>
	<path class="st6" d="M87.6,44.7h0.5l0.2,0c0.2,0,0.4,0,0.6,0c2.5-0.2,4.9-1.3,6.5-3.3c1.5-1.7,2.3-4,2.3-6.3V35
		c0-8.7,3.4-16.9,9.6-23.1c6.2-6.2,14.4-9.6,23.1-9.7h0.1h0h0.2h0.4c0.6,0,1.1-0.5,1.1-1.1S131.8,0,131.2,0h-0.5v0h0h-0.1
		c-9.3,0-18,3.7-24.6,10.3C99.3,16.9,95.7,25.7,95.7,35v0.1c0,1.8-0.6,3.6-1.8,4.9c-1.3,1.5-3.1,2.4-5.1,2.5c-0.1,0-0.3,0-0.5,0
		l-0.2,0v0h-0.5c-0.6,0-1.1,0.5-1.1,1.1C86.6,44.2,87,44.7,87.6,44.7"/>
	<path d="M142.5,39.7c1,0.4,1.8,1.1,2.4,1.9c0.5,0.7,0.9,1.5,1,2.3c0.1,0.8,0.2,2,0.2,3.8v11.5h-5.2v-12c0-1.1-0.2-1.9-0.5-2.6
		c-0.5-0.9-1.3-1.4-2.6-1.4c-1.3,0-2.4,0.5-3.1,1.4c-0.7,0.9-1,2.2-1,3.9v10.6h-5.1V32.7h5.1v9.4c0.7-1.1,1.6-1.9,2.6-2.4
		c1-0.5,2-0.7,3.1-0.7C140.4,39,141.5,39.3,142.5,39.7"/>
	<path d="M157.3,47.3c1-0.1,1.6-0.3,2.1-0.5c0.7-0.3,1.1-0.8,1.1-1.5c0-0.8-0.3-1.4-0.8-1.7c-0.6-0.3-1.4-0.5-2.5-0.5
		c-1.2,0-2.1,0.3-2.6,0.9c-0.4,0.4-0.6,1-0.7,1.8h-5c0.1-1.7,0.6-3.1,1.4-4.2c1.4-1.7,3.7-2.6,7-2.6c2.2,0,4.1,0.4,5.8,1.3
		c1.7,0.9,2.5,2.5,2.5,4.8v9c0,0.6,0,1.4,0,2.3c0,0.7,0.1,1.1,0.3,1.4c0.2,0.2,0.4,0.4,0.8,0.6v0.8h-5.6c-0.2-0.4-0.3-0.8-0.3-1.1
		c-0.1-0.3-0.1-0.7-0.1-1.2c-0.7,0.8-1.5,1.4-2.5,2c-1.1,0.6-2.4,1-3.8,1c-1.8,0-3.3-0.5-4.4-1.5c-1.2-1-1.8-2.5-1.8-4.3
		c0-2.4,0.9-4.2,2.8-5.2c1-0.6,2.5-1,4.5-1.3L157.3,47.3z M160.5,49.7c-0.3,0.2-0.7,0.4-1,0.5c-0.3,0.1-0.8,0.2-1.4,0.4l-1.2,0.2
		c-1.1,0.2-1.9,0.4-2.4,0.7c-0.8,0.5-1.2,1.2-1.2,2.2c0,0.9,0.2,1.5,0.7,1.9c0.5,0.4,1.1,0.6,1.8,0.6c1.1,0,2.2-0.3,3.1-1
		c0.9-0.6,1.4-1.8,1.5-3.5V49.7z"/>
	<rect x="169" y="32.7" width="5.1" height="26.6"/>
	<rect x="178.2" y="32.7" width="5.1" height="26.6"/>
	<path d="M5.2,29.7c0.1,0.9,0.3,1.6,0.7,1.9c0.6,0.7,1.8,1,3.5,1c1,0,1.8-0.2,2.4-0.4c0.6-0.3,0.9-0.8,0.9-1.4c0-0.6-0.2-1-0.7-1.3
		c-0.5-0.3-2.3-0.8-5.4-1.6C4.4,27.5,2.9,26.8,2,26c-0.9-0.8-1.4-2-1.4-3.5c0-1.8,0.7-3.4,2.1-4.7c1.4-1.3,3.4-2,6-2
		c2.5,0,4.5,0.5,6,1.5c1.5,1,2.4,2.7,2.7,5.1h-5.1c-0.1-0.7-0.3-1.2-0.6-1.6c-0.6-0.7-1.5-1-2.9-1c-1.1,0-1.9,0.2-2.4,0.5
		C6,20.6,5.7,21,5.7,21.5c0,0.6,0.3,1,0.8,1.3c0.5,0.3,2.3,0.8,5.4,1.4c2,0.5,3.6,1.2,4.6,2.2c1,1,1.5,2.2,1.5,3.7
		c0,1.9-0.7,3.5-2.2,4.8c-1.4,1.2-3.7,1.8-6.7,1.8c-3.1,0-5.4-0.7-6.9-2c-1.5-1.3-2.2-3-2.2-5H5.2z"/>
	<path d="M18.3,20.2v-3.7H21v-5.5h5.1v5.5h3.2v3.7h-3.2v10.4c0,0.8,0.1,1.3,0.3,1.5c0.2,0.2,0.8,0.3,1.9,0.3c0.2,0,0.3,0,0.5,0
		c0.2,0,0.3,0,0.5,0v3.8l-2.4,0.1c-2.4,0.1-4.1-0.3-5-1.3c-0.6-0.6-0.9-1.5-0.9-2.7V20.2H18.3z"/>
	<path d="M36.6,16.4v11.8c0,1.1,0.1,2,0.4,2.5c0.5,1,1.4,1.5,2.7,1.5c1.7,0,2.9-0.7,3.6-2.1c0.3-0.8,0.5-1.8,0.5-3V16.4H49V36h-5
		v-2.8c0,0.1-0.2,0.2-0.4,0.5c-0.2,0.3-0.4,0.6-0.7,0.8c-0.8,0.7-1.6,1.2-2.3,1.5c-0.7,0.3-1.6,0.4-2.6,0.4c-2.9,0-4.9-1-5.9-3.1
		c-0.6-1.2-0.8-2.9-0.8-5.1V16.4H36.6z"/>
	<path d="M62.5,16.7c0.9,0.5,1.7,1.2,2.3,2.2V9.5H70V36h-5v-2.7c-0.7,1.2-1.6,2-2.5,2.5c-0.9,0.5-2.1,0.8-3.5,0.8
		c-2.3,0-4.2-0.9-5.8-2.8c-1.6-1.9-2.4-4.2-2.4-7.1c0-3.4,0.8-6,2.3-7.9c1.5-1.9,3.6-2.9,6.2-2.9C60.6,15.9,61.6,16.2,62.5,16.7
		 M63.8,30.7c0.8-1.1,1.1-2.5,1.1-4.2c0-2.4-0.6-4.1-1.8-5.2c-0.7-0.6-1.6-0.9-2.6-0.9c-1.5,0-2.6,0.6-3.3,1.7
		c-0.7,1.1-1.1,2.5-1.1,4.2c0,1.8,0.4,3.3,1.1,4.3c0.7,1.1,1.8,1.6,3.3,1.6C61.9,32.3,63.1,31.7,63.8,30.7"/>
	<path d="M74.1,39.8l0.6,0c0.5,0,1,0,1.4-0.1c0.5-0.1,0.8-0.2,1.2-0.4c0.3-0.2,0.6-0.6,0.8-1.3c0.3-0.6,0.4-1,0.3-1.2l-7.2-20.5H77
		l4.3,14.5l4.1-14.5h5.5l-6.7,19.3c-1.3,3.7-2.3,6-3.1,6.9c-0.8,0.9-2.3,1.3-4.5,1.3c-0.5,0-0.8,0-1.1,0c-0.3,0-0.7,0-1.2-0.1V39.8z
		"/>
</g>
</svg>
