<?xml version="1.0" encoding="utf-8"?>
<!-- Generator: Adobe Illustrator 16.0.3, SVG Export Plug-In . SVG Version: 6.00 Build 0)  -->
<!DOCTYPE svg PUBLIC "-//W3C//DTD SVG 1.1//EN" "http://www.w3.org/Graphics/SVG/1.1/DTD/svg11.dtd">
<svg version="1.1" xmlns="http://www.w3.org/2000/svg" xmlns:xlink="http://www.w3.org/1999/xlink" x="0px" y="0px"
	 width="2573.484px" height="2567.487px" viewBox="119.988 201.348 2573.484 2567.487"
	 enable-background="new 119.988 201.348 2573.484 2567.487" xml:space="preserve">
<g id="Layer_2" display="none">
	<circle display="inline" fill="#D61E1E" cx="1407.72" cy="1483.082" r="1238.752"/>
</g>
<g id="Layer_1">
	<g>
		<g>
			<defs>
				<rect id="SVGID_1_" y="0.005" width="2849.727" height="2964.456"/>
			</defs>
			<clipPath id="SVGID_2_">
				<use xlink:href="#SVGID_1_"  overflow="visible"/>
			</clipPath>
			<path clip-path="url(#SVGID_2_)" fill="#FFFFFF" d="M1483.202,226.153c-335.576-20.244-658.875,91.568-910.398,314.583
				c-251.531,223.014-401.153,530.631-421.302,866.191c-20.159,335.543,91.554,658.862,314.578,910.395
				c223.013,251.521,530.635,401.143,866.182,421.303c25.586,1.537,50.988,2.293,76.288,2.293
				c659.726,0,1215.335-515.953,1255.423-1183.062C2705.58,865.172,2175.889,267.76,1483.202,226.153 M2624.917,1555.503
				c-40.327,671.162-618.971,1184.209-1290.304,1144.062c-671.154-40.324-1184.372-619.148-1144.055-1290.292
				c19.528-325.129,164.497-623.178,408.204-839.257c224.982-199.488,509.188-307.053,807.332-307.053
				c24.821,0,49.775,0.745,74.76,2.24C2152.005,305.541,2665.225,884.365,2624.917,1555.503"/>
		</g>
		<g>
			<defs>
				<rect id="SVGID_3_" y="0.005" width="2849.727" height="2964.456"/>
			</defs>
			<clipPath id="SVGID_4_">
				<use xlink:href="#SVGID_3_"  overflow="visible"/>
			</clipPath>
			<path clip-path="url(#SVGID_4_)" fill="#FFFFFF" d="M539.481,1073.314c-5.914-2.671-12.745-0.076-15.431,5.853
				c-2.684,5.937-0.113,12.777,5.79,15.448c5.923,2.67,12.755,0.076,15.439-5.862
				C547.955,1082.835,545.395,1075.996,539.481,1073.314"/>
		</g>
		<g>
			<defs>
				<rect id="SVGID_5_" y="0.005" width="2849.727" height="2964.456"/>
			</defs>
			<clipPath id="SVGID_6_">
				<use xlink:href="#SVGID_5_"  overflow="visible"/>
			</clipPath>
			<polygon clip-path="url(#SVGID_6_)" fill="#FFFFFF" points="713.722,887.943 639.298,826.642 658.941,802.818 635.954,783.922 
				576.148,856.521 599.115,875.433 618.748,851.591 693.173,912.888 			"/>
		</g>
		<g>
			<defs>
				<rect id="SVGID_7_" y="0.005" width="2849.727" height="2964.456"/>
			</defs>
			<clipPath id="SVGID_8_">
				<use xlink:href="#SVGID_7_"  overflow="visible"/>
			</clipPath>
			<polygon clip-path="url(#SVGID_8_)" fill="#FFFFFF" points="807.932,792.443 774.551,752.061 812.021,721.077 845.412,761.479 
				870.309,740.887 789.913,643.596 764.988,664.184 793.067,698.163 755.597,729.126 727.528,695.158 702.611,715.736 
				783.025,813.046 			"/>
		</g>
		<g>
			<defs>
				<rect id="SVGID_9_" y="0.005" width="2849.727" height="2964.456"/>
			</defs>
			<clipPath id="SVGID_10_">
				<use xlink:href="#SVGID_9_"  overflow="visible"/>
			</clipPath>
			<polygon clip-path="url(#SVGID_10_)" fill="#FFFFFF" points="1009.221,658.013 994.918,631.95 951.717,655.644 940.825,635.79 
				972.295,618.508 957.994,592.445 926.514,609.709 919.616,597.141 961.337,574.245 947.016,548.154 876.958,586.613 
				937.682,697.279 			"/>
		</g>
		<g>
			<defs>
				<rect id="SVGID_11_" y="0.005" width="2849.727" height="2964.456"/>
			</defs>
			<clipPath id="SVGID_12_">
				<use xlink:href="#SVGID_11_"  overflow="visible"/>
			</clipPath>
			<polygon clip-path="url(#SVGID_12_)" fill="#FFFFFF" points="1261.928,577.293 1255.641,548.221 1207.52,558.625 
				1187.149,464.31 1155.594,471.146 1182.221,594.542 			"/>
		</g>
		<g>
			<defs>
				<rect id="SVGID_13_" y="0.005" width="2849.727" height="2964.456"/>
			</defs>
			<clipPath id="SVGID_14_">
				<use xlink:href="#SVGID_13_"  overflow="visible"/>
			</clipPath>
			<polygon clip-path="url(#SVGID_14_)" fill="#FFFFFF" points="1366.064,567.304 1357.818,441.347 1325.585,443.43 
				1333.83,569.387 			"/>
		</g>
		<g>
			<defs>
				<rect id="SVGID_15_" y="0.005" width="2849.727" height="2964.456"/>
			</defs>
			<clipPath id="SVGID_16_">
				<use xlink:href="#SVGID_15_"  overflow="visible"/>
			</clipPath>
			<path clip-path="url(#SVGID_16_)" fill="#FFFFFF" d="M1504.681,571.059c11.521,0,20.492-2.957,27.839-9.07
				c8.379-6.778,13.738-16.757,14.73-27.399c1.138-12.493-3.64-24.635-12.418-32.383c3.382-4.52,6.286-10.791,6.896-17.541
				c0.945-10.284-2.714-20.555-10.004-28.146c-6.744-7.122-15.523-10.82-28.47-11.995l-44.435-4.041l-11.428,125.685l50.235,4.548
				C1500.084,570.939,1502.436,571.059,1504.681,571.059 M1515.064,531.496c-0.259,2.828-1.424,5.183-3.584,7.085
				c-1.604,1.515-4.423,3.146-11.636,2.484l-17.579-1.597l1.979-21.729l17.588,1.596c7.232,0.664,9.688,2.789,11.082,4.637
				C1514.577,526.113,1515.321,528.697,1515.064,531.496 M1509.476,482.572c-0.152,1.72-1.089,3.52-2.437,4.752
				c-1.014,0.88-2.762,2.397-9.171,1.802l-10.92-0.999l1.375-15.104l10.909,0.997c5.98,0.535,7.614,2.046,8.666,3.383
				C1509.055,478.912,1509.628,480.8,1509.476,482.572"/>
		</g>
		<g>
			<defs>
				<rect id="SVGID_17_" y="0.005" width="2849.727" height="2964.456"/>
			</defs>
			<clipPath id="SVGID_18_">
				<use xlink:href="#SVGID_17_"  overflow="visible"/>
			</clipPath>
			<path clip-path="url(#SVGID_18_)" fill="#FFFFFF" d="M1658.819,547.599l0.907,0.274l24.944,61.339l38.837,11.67l-27.982-67.258
				c2.913-0.617,5.693-1.591,8.33-2.915c9.277-4.638,16.299-12.94,19.252-22.756c2.952-9.802,1.672-20.584-3.545-29.679
				c-5.158-8.628-13.031-14.293-24.765-17.81l-45.446-13.666L1613,587.668l30.974,9.306L1658.819,547.599z M1684.959,508.562
				c5.579,1.682,6.392,3.349,6.831,4.236c0.821,1.662,0.937,3.951,0.296,6.02c-0.554,1.905-1.938,3.746-3.496,4.651
				c-0.803,0.484-2.303,1.324-7.985-0.386l-13.214-3.965l4.355-14.527L1684.959,508.562z"/>
		</g>
		<g>
			<defs>
				<rect id="SVGID_19_" y="0.005" width="2849.727" height="2964.456"/>
			</defs>
			<clipPath id="SVGID_20_">
				<use xlink:href="#SVGID_19_"  overflow="visible"/>
			</clipPath>
			<path clip-path="url(#SVGID_20_)" fill="#FFFFFF" d="M1823.729,637.085l35.894,18.606l-2.121,27.938l30.353,15.739
				l10.004-136.938l-19.768-10.285l-106.371,86.981l30.323,15.739L1823.729,637.085z M1848.72,616.539l14.494-11.836l-1.329,18.668
				L1848.72,616.539z"/>
		</g>
		<g>
			<defs>
				<rect id="SVGID_21_" y="0.005" width="2849.727" height="2964.456"/>
			</defs>
			<clipPath id="SVGID_22_">
				<use xlink:href="#SVGID_21_"  overflow="visible"/>
			</clipPath>
			<path clip-path="url(#SVGID_22_)" fill="#FFFFFF" d="M1998.36,715.938l0.735,0.598l0.21,66.212l31.652,25.298l-0.812-72.828
				c2.925,0.521,5.866,0.635,8.828,0.411c10.355-0.85,19.968-5.938,26.357-13.93c6.4-7.992,9.25-18.492,7.807-28.854
				c-1.576-9.926-6.754-18.112-16.31-25.766l-37.067-29.636l-78.867,98.575l25.242,20.184L1998.36,715.938z M2037.207,689.474
				c4.537,3.648,4.672,5.488,4.738,6.458c0.124,1.868-0.611,4.057-1.921,5.688c-1.271,1.577-3.257,2.762-5.044,3.043
				c-0.965,0.129-2.627,0.354-7.279-3.343l-10.768-8.617l9.496-11.847L2037.207,689.474z"/>
		</g>
		<g>
			<defs>
				<rect id="SVGID_23_" y="0.005" width="2849.727" height="2964.456"/>
			</defs>
			<clipPath id="SVGID_24_">
				<use xlink:href="#SVGID_23_"  overflow="visible"/>
			</clipPath>
			<polygon clip-path="url(#SVGID_24_)" fill="#FFFFFF" points="2160.699,816.801 2173.004,775.4 2148.423,747.421 
				2124.891,826.646 2082.674,863.714 2104.007,887.996 2146.234,850.927 2227.882,837.824 2203.271,809.818 			"/>
		</g>
		<g>
			<defs>
				<rect id="SVGID_25_" y="0.005" width="2849.727" height="2964.456"/>
			</defs>
			<clipPath id="SVGID_26_">
				<use xlink:href="#SVGID_25_"  overflow="visible"/>
			</clipPath>
			<path clip-path="url(#SVGID_26_)" fill="#FFFFFF" d="M2265.189,1074.872c2.799,5.881,9.666,8.336,15.532,5.556
				c5.849-2.79,8.293-9.663,5.503-15.544c-2.789-5.871-9.668-8.346-15.523-5.555
				C2264.845,1062.104,2262.409,1068.992,2265.189,1074.872"/>
		</g>
		<g>
			<defs>
				<rect id="SVGID_27_" y="0.005" width="2849.727" height="2964.456"/>
			</defs>
			<clipPath id="SVGID_28_">
				<use xlink:href="#SVGID_27_"  overflow="visible"/>
			</clipPath>
			<path clip-path="url(#SVGID_28_)" fill="#FFFFFF" d="M694.758,1439.559c-23.617,393.138,277.012,732.191,670.141,755.808
				c14.521,0.881,28.938,1.311,43.287,1.311c374.432,0,689.782-292.844,712.521-671.459
				c11.446-190.445-51.952-373.944-178.53-516.696c-126.578-142.759-301.164-227.677-491.607-239.112
				C1057.075,745.659,718.366,1046.43,694.758,1439.559 M1407.298,807.242c13.546,0,27.218,0.4,40.918,1.224
				c180.013,10.81,345.034,91.089,464.677,226.018c119.643,134.938,179.571,308.372,168.758,488.385
				c-21.506,357.902-319.535,634.693-673.483,634.666c-13.547,0-27.219-0.4-40.919-1.223
				c-371.594-22.328-655.752-342.801-633.435-714.403C755.319,1084.005,1053.351,807.242,1407.298,807.242"/>
		</g>
		<g>
			<defs>
				<rect id="SVGID_29_" y="0.005" width="2849.727" height="2964.456"/>
			</defs>
			<clipPath id="SVGID_30_">
				<use xlink:href="#SVGID_29_"  overflow="visible"/>
			</clipPath>
			<path clip-path="url(#SVGID_30_)" fill="#FFFFFF" d="M799.306,2095.658c8.468,9.158,8.595,18.748-4.752,31.086l-7.589,7.016
				l25.158,27.217l5.758-5.322c29.571-27.338,32.995-56.709,6.869-84.973c-26.127-28.262-55.677-27.152-85.249,0.184
				c-8.635,7.982-15.015,16.307-18.896,25.232c-7.743,17.35-9.462,35.439-8.887,52.863c-0.095,8.822-0.169,17.143-0.484,25.201
				c-0.896,16.355-4.249,31.104-16.811,42.717c-13.347,12.336-23.118,10.689-31.585,1.531c-8.468-9.158-9.34-19.027,4.006-31.365
				l13.085-12.096l-25.158-27.219l-11.253,10.402c-29.571,27.338-32.513,57.232-6.386,85.496
				c26.127,28.262,56.16,27.676,85.733,0.34c8.635-7.98,15.015-16.305,18.896-25.23c7.743-17.352,9.462-35.439,9.391-52.844
				c-0.409-8.844-0.335-17.162,0.243-25.463c0.634-16.115,3.986-30.861,16.549-42.475
				C781.29,2085.621,790.838,2086.5,799.306,2095.658"/>
		</g>
		<g>
			<defs>
				<rect id="SVGID_31_" y="0.005" width="2849.727" height="2964.456"/>
			</defs>
			<clipPath id="SVGID_32_">
				<use xlink:href="#SVGID_31_"  overflow="visible"/>
			</clipPath>
			<polygon clip-path="url(#SVGID_32_)" fill="#FFFFFF" points="959.942,2235.931 981.188,2207.314 883.894,2135.083 
				862.649,2163.699 895.557,2188.13 768.089,2359.824 799.567,2383.191 927.034,2211.498 			"/>
		</g>
		<g>
			<defs>
				<rect id="SVGID_33_" y="0.005" width="2849.727" height="2964.456"/>
			</defs>
			<clipPath id="SVGID_34_">
				<use xlink:href="#SVGID_33_"  overflow="visible"/>
			</clipPath>
			<path clip-path="url(#SVGID_34_)" fill="#FFFFFF" d="M1081.83,2259.125l-83.614,173.338c-7.896,16.369-17.591,18.42-28.826,13
				c-11.234-5.418-15.665-14.281-7.768-30.652l83.615-173.338l-35.311-17.031l-82.53,171.09
				c-17.496,36.271-9.276,65.166,25.391,81.889c34.668,16.723,62.4,5.172,79.896-31.102l82.53-171.09L1081.83,2259.125z"/>
		</g>
		<g>
			<defs>
				<rect id="SVGID_35_" y="0.005" width="2849.727" height="2964.456"/>
			</defs>
			<clipPath id="SVGID_36_">
				<use xlink:href="#SVGID_35_"  overflow="visible"/>
			</clipPath>
			<path clip-path="url(#SVGID_36_)" fill="#FFFFFF" d="M1216.6,2305.716l-60.068-15.402l-61.961,241.656l60.068,15.402
				c38.32,9.824,61.929-6.197,71.931-45.207l31.334-122.209C1267.905,2340.947,1254.918,2315.541,1216.6,2305.716
				 M1220.371,2368.494l-32.219,125.66c-4.516,17.605-13.27,21.615-25.353,18.52l-21.404-5.488l44.257-172.611l21.404,5.486
				C1219.14,2343.158,1224.886,2350.888,1220.371,2368.494"/>
		</g>
		<g>
			<defs>
				<rect id="SVGID_37_" y="0.005" width="2849.727" height="2964.456"/>
			</defs>
			<clipPath id="SVGID_38_">
				<use xlink:href="#SVGID_37_"  overflow="visible"/>
			</clipPath>
			<polygon clip-path="url(#SVGID_38_)" fill="#FFFFFF" points="1361.6,2442.332 1338.309,2327.103 1297.395,2324.724 
				1337.173,2494.103 1332.375,2576.646 1371.512,2578.917 1376.309,2496.378 1435.438,2332.746 1398.08,2330.576 			"/>
		</g>
		<g>
			<defs>
				<rect id="SVGID_39_" y="0.005" width="2849.727" height="2964.456"/>
			</defs>
			<clipPath id="SVGID_40_">
				<use xlink:href="#SVGID_39_"  overflow="visible"/>
			</clipPath>
			<polygon clip-path="url(#SVGID_40_)" fill="#FFFFFF" points="1629.895,2300.222 1656.201,2403.853 1613.021,2414.814 
				1586.714,2311.183 1548.717,2320.83 1610.102,2562.634 1648.1,2552.988 1621.791,2449.357 1664.971,2438.396 1691.279,2542.027 
				1729.968,2532.205 1668.582,2290.4 			"/>
		</g>
		<g>
			<defs>
				<rect id="SVGID_41_" y="0.005" width="2849.727" height="2964.456"/>
			</defs>
			<clipPath id="SVGID_42_">
				<use xlink:href="#SVGID_41_"  overflow="visible"/>
			</clipPath>
			<path clip-path="url(#SVGID_42_)" fill="#FFFFFF" d="M1735.401,2262.884l75.782,241.012l32.2-16.086l-14.17-43.518l43.041-21.5
				l26.284,37.463l35.389-17.68l-147.195-205.334L1735.401,2262.884z M1818.548,2411.775l-39.485-121.303l73.279,104.42
				L1818.548,2411.775z"/>
		</g>
		<g>
			<defs>
				<rect id="SVGID_43_" y="0.005" width="2849.727" height="2964.456"/>
			</defs>
			<clipPath id="SVGID_44_">
				<use xlink:href="#SVGID_43_"  overflow="visible"/>
			</clipPath>
			<polygon clip-path="url(#SVGID_44_)" fill="#FFFFFF" points="2014.232,2346.488 1886.66,2174.878 1855.199,2198.267 
				2004.032,2398.476 2087.262,2336.603 2066,2308.001 			"/>
		</g>
		<g>
			<defs>
				<rect id="SVGID_45_" y="0.005" width="2849.727" height="2964.456"/>
			</defs>
			<clipPath id="SVGID_46_">
				<use xlink:href="#SVGID_45_"  overflow="visible"/>
			</clipPath>
			<polygon clip-path="url(#SVGID_46_)" fill="#FFFFFF" points="2147.467,2229.558 1991.832,2082.917 1964.948,2111.453 
				2146.521,2282.531 2217.643,2207.048 2191.703,2182.607 			"/>
		</g>
		<g>
			<defs>
				<rect id="SVGID_47_" y="0.005" width="2849.727" height="2964.456"/>
			</defs>
			<clipPath id="SVGID_48_">
				<use xlink:href="#SVGID_47_"  overflow="visible"/>
			</clipPath>
			<path clip-path="url(#SVGID_48_)" fill="#FFFFFF" d="M979.212,1795.675c135.564,0.078,271.131,0.363,406.694-0.592
				c1.342-0.01,2.729-0.105,4.14-0.275c2.295-0.273,4.659-0.744,7.025-1.396c1.527-0.422,3.056-0.918,4.565-1.48
				c5.946-2.211,11.606-5.453,15.848-9.289c0.605-0.549,1.182-1.107,1.727-1.678c85.575-89.625,170.689-179.68,255.635-269.893
				c28.313-30.072,56.61-60.161,84.899-90.257c1.543-1.64,3.025-3.416,4.417-5.293c4.179-5.633,7.549-12.169,9.341-18.639
				c5.371-19.44,10.71-38.889,16.02-58.346c10.616-38.914,21.116-77.861,31.527-116.829c5.205-19.485,10.391-38.975,15.557-58.469
				c0.368-1.386,0.691-2.728,0.973-4.022c0.561-2.59,0.941-5.001,1.142-7.239c0.102-1.119,0.155-2.194,0.164-3.229
				c0-0.019,0.002-0.039,0.002-0.058c0.004-0.594-0.008-1.171-0.032-1.735c-0.054-1.13-0.166-2.204-0.343-3.225
				c-0.176-1.021-0.412-1.988-0.713-2.903c-0.229-0.699-0.507-1.359-0.81-1.997c-0.166-0.351-0.343-0.692-0.531-1.025
				c-1.001-1.766-2.313-3.283-3.954-4.561c-0.179-0.139-0.364-0.271-0.55-0.405c-1.192-0.854-2.545-1.593-4.056-2.224
				c-0.774-0.323-1.578-0.626-2.438-0.893c-1.62-0.502-3.393-0.906-5.32-1.214c-3.212-0.515-6.853-0.765-10.936-0.772
				c-17.032-0.03-34.063-0.049-51.094-0.059c-17.032-0.01-34.062-0.012-51.093-0.009h-0.015
				c-34.057,0.006-68.11,0.024-102.164,0.024c-50.438,0-100.873-0.313-151.304,0.007c-17.011,0.107-34.022,0.287-51.031,0.576
				c-3.354,0.056-6.985,0.583-10.614,1.513c-3.63,0.929-7.258,2.261-10.604,3.927c-1.338,0.666-2.631,1.387-3.861,2.155
				c-0.615,0.386-1.214,0.781-1.796,1.189c-1.179,0.828-2.282,1.706-3.294,2.626c-0.485,0.44-0.95,0.89-1.389,1.35
				c-54.535,57.026-108.904,114.211-163.164,171.498c-18.087,19.096-36.161,38.203-54.227,57.319
				c-42.148,44.603-84.244,89.256-126.312,133.934c-5.349,5.688-9.944,12.969-12.845,20.451c-0.669,1.727-1.248,3.465-1.727,5.197
				c-13.172,47.789-26.073,95.658-38.863,143.557c-3.237,12.127-6.468,24.256-9.693,36.385
				c-4.419,16.615-8.832,33.232-13.241,49.852C943.854,1785.74,951.646,1795.658,979.212,1795.675 M1103.65,1483.994
				c94.936-100.468,189.791-201.001,285.198-301.011c6.182-6.478,16.721-12.409,25.28-12.473
				c113.279-0.827,226.559-0.567,339.857-0.486c4.46,0.005,8.922,1.026,16.728,1.977c-37.471,39.826-72.829,77.549-108.35,115.114
				c-64.861,68.586-129.683,137.207-194.974,205.362c-5.397,5.639-14.33,11.158-21.657,11.203
				c-117.326,0.648-234.661,0.404-351.995,0.301c-1.151,0-2.309-0.852-5.66-2.168
				C1093.566,1495.515,1098.396,1489.558,1103.65,1483.994 M1032.445,1617.738c5.16-19.48,9.583-39.221,16.228-58.184
				c1.979-5.646,10.327-12.859,15.797-12.889c120.641-0.697,241.276-0.479,361.911-0.373c1.893,0.01,3.779,1.051,7.781,2.234
				c-4.623,17.475-9.171,34.775-13.795,52.078c-12.311,46.078-24.94,92.08-36.749,138.291c-2.546,9.965-6.067,14.789-17.287,14.742
				c-119.962-0.383-239.924-0.307-359.896-0.412c-1.959,0-3.922-0.771-9.271-1.9
				C1009.202,1705.728,1020.79,1661.73,1032.445,1617.738"/>
		</g>
	</g>
</g>
</svg>
